<svg width="1440" height="60" viewBox="0 0 1440 60" fill="none" xmlns="http://www.w3.org/2000/svg">
<rect width="1440" height="60" fill="white"/>
<path d="M161.662 24.824C161.758 23.336 162.326 22.176 163.366 21.344C164.422 20.512 165.766 20.096 167.398 20.096C168.518 20.096 169.486 20.296 170.302 20.696C171.118 21.096 171.734 21.64 172.15 22.328C172.566 23.016 172.774 23.792 172.774 24.656C172.774 25.648 172.51 26.496 171.982 27.2C171.454 27.904 170.822 28.376 170.086 28.616V28.712C171.03 29 171.766 29.528 172.294 30.296C172.822 31.048 173.086 32.016 173.086 33.2C173.086 34.144 172.87 34.984 172.438 35.72C172.006 36.456 171.366 37.04 170.518 37.472C169.67 37.888 168.654 38.096 167.47 38.096C165.742 38.096 164.318 37.656 163.198 36.776C162.094 35.88 161.502 34.6 161.422 32.936H164.062C164.126 33.784 164.454 34.48 165.046 35.024C165.638 35.552 166.438 35.816 167.446 35.816C168.422 35.816 169.174 35.552 169.702 35.024C170.23 34.48 170.494 33.784 170.494 32.936C170.494 31.816 170.134 31.024 169.414 30.56C168.71 30.08 167.622 29.84 166.15 29.84H165.526V27.584H166.174C167.47 27.568 168.454 27.352 169.126 26.936C169.814 26.52 170.158 25.864 170.158 24.968C170.158 24.2 169.91 23.592 169.414 23.144C168.918 22.68 168.214 22.448 167.302 22.448C166.406 22.448 165.71 22.68 165.214 23.144C164.718 23.592 164.422 24.152 164.326 24.824H161.662ZM179.056 20.24V38H176.32V20.24H179.056ZM194.768 31.064C194.768 31.56 194.736 32.008 194.672 32.408H184.568C184.648 33.464 185.04 34.312 185.744 34.952C186.448 35.592 187.312 35.912 188.336 35.912C189.808 35.912 190.848 35.296 191.456 34.064H194.408C194.008 35.28 193.28 36.28 192.224 37.064C191.184 37.832 189.888 38.216 188.336 38.216C187.072 38.216 185.936 37.936 184.928 37.376C183.936 36.8 183.152 36 182.576 34.976C182.016 33.936 181.736 32.736 181.736 31.376C181.736 30.016 182.008 28.824 182.552 27.8C183.112 26.76 183.888 25.96 184.88 25.4C185.888 24.84 187.04 24.56 188.336 24.56C189.584 24.56 190.696 24.832 191.672 25.376C192.648 25.92 193.408 26.688 193.952 27.68C194.496 28.656 194.768 29.784 194.768 31.064ZM191.912 30.2C191.896 29.192 191.536 28.384 190.832 27.776C190.128 27.168 189.256 26.864 188.216 26.864C187.272 26.864 186.464 27.168 185.792 27.776C185.12 28.368 184.72 29.176 184.592 30.2H191.912ZM202.788 24.56C203.812 24.56 204.716 24.768 205.5 25.184C206.3 25.584 206.924 26.088 207.372 26.696V24.776H210.132V38.216C210.132 39.432 209.876 40.512 209.364 41.456C208.852 42.416 208.108 43.168 207.132 43.712C206.172 44.256 205.02 44.528 203.676 44.528C201.884 44.528 200.396 44.104 199.212 43.256C198.028 42.424 197.356 41.288 197.196 39.848H199.908C200.116 40.536 200.556 41.088 201.228 41.504C201.916 41.936 202.732 42.152 203.676 42.152C204.78 42.152 205.668 41.816 206.34 41.144C207.028 40.472 207.372 39.496 207.372 38.216V36.008C206.908 36.632 206.276 37.16 205.476 37.592C204.692 38.008 203.796 38.216 202.788 38.216C201.636 38.216 200.58 37.928 199.62 37.352C198.676 36.76 197.924 35.944 197.364 34.904C196.82 33.848 196.548 32.656 196.548 31.328C196.548 30 196.82 28.824 197.364 27.8C197.924 26.776 198.676 25.984 199.62 25.424C200.58 24.848 201.636 24.56 202.788 24.56ZM207.372 31.376C207.372 30.464 207.18 29.672 206.796 29C206.428 28.328 205.94 27.816 205.332 27.464C204.724 27.112 204.068 26.936 203.364 26.936C202.66 26.936 202.004 27.112 201.396 27.464C200.788 27.8 200.292 28.304 199.908 28.976C199.54 29.632 199.356 30.416 199.356 31.328C199.356 32.24 199.54 33.04 199.908 33.728C200.292 34.416 200.788 34.944 201.396 35.312C202.02 35.664 202.676 35.84 203.364 35.84C204.068 35.84 204.724 35.664 205.332 35.312C205.94 34.96 206.428 34.448 206.796 33.776C207.18 33.088 207.372 32.288 207.372 31.376ZM212.814 31.328C212.814 30 213.086 28.824 213.63 27.8C214.19 26.776 214.942 25.984 215.886 25.424C216.846 24.848 217.902 24.56 219.054 24.56C220.094 24.56 220.998 24.768 221.766 25.184C222.55 25.584 223.174 26.088 223.638 26.696V24.776H226.398V38H223.638V36.032C223.174 36.656 222.542 37.176 221.742 37.592C220.942 38.008 220.03 38.216 219.006 38.216C217.87 38.216 216.83 37.928 215.886 37.352C214.942 36.76 214.19 35.944 213.63 34.904C213.086 33.848 212.814 32.656 212.814 31.328ZM223.638 31.376C223.638 30.464 223.446 29.672 223.062 29C222.694 28.328 222.206 27.816 221.598 27.464C220.99 27.112 220.334 26.936 219.63 26.936C218.926 26.936 218.27 27.112 217.662 27.464C217.054 27.8 216.558 28.304 216.174 28.976C215.806 29.632 215.622 30.416 215.622 31.328C215.622 32.24 215.806 33.04 216.174 33.728C216.558 34.416 217.054 34.944 217.662 35.312C218.286 35.664 218.942 35.84 219.63 35.84C220.334 35.84 220.99 35.664 221.598 35.312C222.206 34.96 222.694 34.448 223.062 33.776C223.446 33.088 223.638 32.288 223.638 31.376ZM236.663 24.56C237.703 24.56 238.631 24.776 239.447 25.208C240.279 25.64 240.927 26.28 241.391 27.128C241.855 27.976 242.087 29 242.087 30.2V38H239.375V30.608C239.375 29.424 239.079 28.52 238.487 27.896C237.895 27.256 237.087 26.936 236.063 26.936C235.039 26.936 234.223 27.256 233.615 27.896C233.023 28.52 232.727 29.424 232.727 30.608V38H229.991V24.776H232.727V26.288C233.175 25.744 233.743 25.32 234.431 25.016C235.135 24.712 235.879 24.56 236.663 24.56ZM248.769 27.008V34.328C248.769 34.824 248.881 35.184 249.105 35.408C249.345 35.616 249.745 35.72 250.305 35.72H251.985V38H249.825C248.593 38 247.649 37.712 246.993 37.136C246.337 36.56 246.009 35.624 246.009 34.328V27.008H244.449V24.776H246.009V21.488H248.769V24.776H251.985V27.008H248.769Z" fill="black"/>
<path d="M255.611 38.168C255.115 38.168 254.699 38 254.363 37.664C254.027 37.328 253.859 36.912 253.859 36.416C253.859 35.92 254.027 35.504 254.363 35.168C254.699 34.832 255.115 34.664 255.611 34.664C256.091 34.664 256.499 34.832 256.835 35.168C257.171 35.504 257.339 35.92 257.339 36.416C257.339 36.912 257.171 37.328 256.835 37.664C256.499 38 256.091 38.168 255.611 38.168Z" fill="#6C7275"/>
<path d="M546.522 35V25.2H548.034V29.4H552.15V25.2H553.662V35H552.15V30.772H548.034V35H546.522ZM558.986 35.196C558.295 35.196 557.679 35.056 557.138 34.776C556.606 34.4867 556.186 34.076 555.878 33.544C555.57 33.012 555.416 32.382 555.416 31.654V31.444C555.416 30.716 555.57 30.0907 555.878 29.568C556.186 29.036 556.606 28.6253 557.138 28.336C557.679 28.0467 558.295 27.902 558.986 27.902C559.676 27.902 560.292 28.0467 560.834 28.336C561.375 28.6253 561.8 29.036 562.108 29.568C562.416 30.0907 562.57 30.716 562.57 31.444V31.654C562.57 32.382 562.416 33.012 562.108 33.544C561.8 34.076 561.375 34.4867 560.834 34.776C560.292 35.056 559.676 35.196 558.986 35.196ZM558.986 33.908C559.62 33.908 560.134 33.7073 560.526 33.306C560.927 32.8953 561.128 32.3307 561.128 31.612V31.486C561.128 30.7673 560.932 30.2073 560.54 29.806C560.148 29.3953 559.63 29.19 558.986 29.19C558.36 29.19 557.847 29.3953 557.446 29.806C557.054 30.2073 556.858 30.7673 556.858 31.486V31.612C556.858 32.3307 557.054 32.8953 557.446 33.306C557.847 33.7073 558.36 33.908 558.986 33.908ZM564.365 35V28.098H565.779V28.91H566.003C566.133 28.6673 566.343 28.4527 566.633 28.266C566.922 28.0793 567.314 27.986 567.809 27.986C568.322 27.986 568.733 28.0933 569.041 28.308C569.358 28.5133 569.596 28.7793 569.755 29.106H569.979C570.137 28.7887 570.366 28.5227 570.665 28.308C570.973 28.0933 571.407 27.986 571.967 27.986C572.415 27.986 572.811 28.0793 573.157 28.266C573.502 28.4433 573.777 28.714 573.983 29.078C574.188 29.4327 574.291 29.876 574.291 30.408V35H572.849V30.52C572.849 30.1 572.732 29.778 572.499 29.554C572.275 29.3207 571.953 29.204 571.533 29.204C571.085 29.204 570.725 29.3487 570.455 29.638C570.184 29.9273 570.049 30.3427 570.049 30.884V35H568.607V30.52C568.607 30.1 568.49 29.778 568.257 29.554C568.033 29.3207 567.711 29.204 567.291 29.204C566.843 29.204 566.483 29.3487 566.213 29.638C565.942 29.9273 565.807 30.3427 565.807 30.884V35H564.365ZM579.533 35.196C578.833 35.196 578.221 35.0513 577.699 34.762C577.176 34.4633 576.765 34.048 576.467 33.516C576.177 32.9747 576.033 32.3493 576.033 31.64V31.472C576.033 30.7533 576.177 30.128 576.467 29.596C576.756 29.0547 577.157 28.6393 577.671 28.35C578.193 28.0513 578.795 27.902 579.477 27.902C580.139 27.902 580.718 28.0513 581.213 28.35C581.717 28.6393 582.109 29.0453 582.389 29.568C582.669 30.0907 582.809 30.702 582.809 31.402V31.948H577.503C577.521 32.5547 577.722 33.04 578.105 33.404C578.497 33.7587 578.982 33.936 579.561 33.936C580.102 33.936 580.508 33.8147 580.779 33.572C581.059 33.3293 581.273 33.0493 581.423 32.732L582.613 33.348C582.482 33.6093 582.291 33.8847 582.039 34.174C581.796 34.4633 581.474 34.706 581.073 34.902C580.671 35.098 580.158 35.196 579.533 35.196ZM577.517 30.842H581.339C581.301 30.3193 581.115 29.9133 580.779 29.624C580.443 29.3253 580.004 29.176 579.463 29.176C578.921 29.176 578.478 29.3253 578.133 29.624C577.797 29.9133 577.591 30.3193 577.517 30.842Z" fill="#141718"/>
<path d="M627.854 35.196C627.117 35.196 626.463 35.0653 625.894 34.804C625.325 34.5427 624.877 34.16 624.55 33.656C624.233 33.1427 624.074 32.522 624.074 31.794V31.444H625.572V31.794C625.572 32.4847 625.777 33.0027 626.188 33.348C626.608 33.6933 627.163 33.866 627.854 33.866C628.554 33.866 629.081 33.7213 629.436 33.432C629.791 33.1333 629.968 32.7507 629.968 32.284C629.968 31.976 629.884 31.724 629.716 31.528C629.548 31.332 629.31 31.178 629.002 31.066C628.694 30.9447 628.325 30.8327 627.896 30.73L627.378 30.604C626.753 30.4547 626.207 30.2727 625.74 30.058C625.283 29.834 624.928 29.54 624.676 29.176C624.424 28.812 624.298 28.3453 624.298 27.776C624.298 27.1973 624.438 26.7027 624.718 26.292C625.007 25.8813 625.404 25.564 625.908 25.34C626.412 25.116 627.005 25.004 627.686 25.004C628.367 25.004 628.974 25.1207 629.506 25.354C630.047 25.5873 630.472 25.9327 630.78 26.39C631.088 26.8473 631.242 27.4213 631.242 28.112V28.616H629.744V28.112C629.744 27.692 629.655 27.3513 629.478 27.09C629.31 26.8287 629.072 26.6373 628.764 26.516C628.456 26.3947 628.097 26.334 627.686 26.334C627.089 26.334 626.622 26.46 626.286 26.712C625.959 26.9547 625.796 27.2953 625.796 27.734C625.796 28.0327 625.866 28.28 626.006 28.476C626.155 28.6627 626.37 28.8167 626.65 28.938C626.93 29.0593 627.28 29.1667 627.7 29.26L628.218 29.386C628.853 29.526 629.413 29.708 629.898 29.932C630.383 30.1467 630.766 30.4407 631.046 30.814C631.326 31.1873 631.466 31.668 631.466 32.256C631.466 32.844 631.317 33.3573 631.018 33.796C630.729 34.2347 630.313 34.58 629.772 34.832C629.231 35.0747 628.591 35.196 627.854 35.196ZM633.095 35V25.2H634.537V29.078H634.761C634.855 28.9007 634.985 28.728 635.153 28.56C635.331 28.392 635.559 28.2567 635.839 28.154C636.129 28.042 636.493 27.986 636.931 27.986C637.454 27.986 637.916 28.1027 638.317 28.336C638.728 28.5693 639.05 28.9007 639.283 29.33C639.517 29.75 639.633 30.2587 639.633 30.856V35H638.191V30.968C638.191 30.3707 638.042 29.932 637.743 29.652C637.445 29.3627 637.034 29.218 636.511 29.218C635.914 29.218 635.433 29.414 635.069 29.806C634.715 30.198 634.537 30.7673 634.537 31.514V35H633.095ZM644.943 35.196C644.252 35.196 643.636 35.056 643.095 34.776C642.563 34.4867 642.143 34.076 641.835 33.544C641.527 33.012 641.373 32.382 641.373 31.654V31.444C641.373 30.716 641.527 30.0907 641.835 29.568C642.143 29.036 642.563 28.6253 643.095 28.336C643.636 28.0467 644.252 27.902 644.943 27.902C645.633 27.902 646.249 28.0467 646.791 28.336C647.332 28.6253 647.757 29.036 648.065 29.568C648.373 30.0907 648.527 30.716 648.527 31.444V31.654C648.527 32.382 648.373 33.012 648.065 33.544C647.757 34.076 647.332 34.4867 646.791 34.776C646.249 35.056 645.633 35.196 644.943 35.196ZM644.943 33.908C645.577 33.908 646.091 33.7073 646.483 33.306C646.884 32.8953 647.085 32.3307 647.085 31.612V31.486C647.085 30.7673 646.889 30.2073 646.497 29.806C646.105 29.3953 645.587 29.19 644.943 29.19C644.317 29.19 643.804 29.3953 643.403 29.806C643.011 30.2073 642.815 30.7673 642.815 31.486V31.612C642.815 32.3307 643.011 32.8953 643.403 33.306C643.804 33.7073 644.317 33.908 644.943 33.908ZM650.322 37.8V28.098H651.736V29.092H651.96C652.137 28.784 652.403 28.5087 652.758 28.266C653.122 28.0233 653.64 27.902 654.312 27.902C654.89 27.902 655.418 28.042 655.894 28.322C656.379 28.602 656.766 29.008 657.056 29.54C657.354 30.0627 657.504 30.6973 657.504 31.444V31.654C657.504 32.4007 657.359 33.04 657.07 33.572C656.78 34.0947 656.393 34.496 655.908 34.776C655.422 35.056 654.89 35.196 654.312 35.196C653.864 35.196 653.486 35.14 653.178 35.028C652.87 34.916 652.622 34.776 652.436 34.608C652.249 34.4307 652.1 34.2487 651.988 34.062H651.764V37.8H650.322ZM653.892 33.936C654.526 33.936 655.044 33.7353 655.446 33.334C655.847 32.9327 656.048 32.3587 656.048 31.612V31.486C656.048 30.7487 655.842 30.1793 655.432 29.778C655.03 29.3767 654.517 29.176 653.892 29.176C653.276 29.176 652.762 29.3767 652.352 29.778C651.95 30.1793 651.75 30.7487 651.75 31.486V31.612C651.75 32.3587 651.95 32.9327 652.352 33.334C652.762 33.7353 653.276 33.936 653.892 33.936Z" fill="#6C7275"/>
<path d="M699.522 35V25.2H703.414C704.011 25.2 704.543 25.3213 705.01 25.564C705.486 25.7973 705.855 26.1333 706.116 26.572C706.387 27.0013 706.522 27.5193 706.522 28.126V28.308C706.522 28.9147 706.382 29.4373 706.102 29.876C705.831 30.3147 705.463 30.6507 704.996 30.884C704.529 31.1173 704.002 31.234 703.414 31.234H701.034V35H699.522ZM701.034 29.862H703.26C703.792 29.862 704.217 29.722 704.534 29.442C704.851 29.162 705.01 28.7793 705.01 28.294V28.154C705.01 27.6593 704.851 27.272 704.534 26.992C704.217 26.712 703.792 26.572 703.26 26.572H701.034V29.862ZM708 35V28.098H709.414V28.91H709.638C709.75 28.6207 709.927 28.4107 710.17 28.28C710.422 28.14 710.73 28.07 711.094 28.07H711.92V29.372H711.038C710.571 29.372 710.188 29.5027 709.89 29.764C709.591 30.016 709.442 30.408 709.442 30.94V35H708ZM716.402 35.196C715.711 35.196 715.095 35.056 714.554 34.776C714.022 34.4867 713.602 34.076 713.294 33.544C712.986 33.012 712.832 32.382 712.832 31.654V31.444C712.832 30.716 712.986 30.0907 713.294 29.568C713.602 29.036 714.022 28.6253 714.554 28.336C715.095 28.0467 715.711 27.902 716.402 27.902C717.092 27.902 717.708 28.0467 718.25 28.336C718.791 28.6253 719.216 29.036 719.524 29.568C719.832 30.0907 719.986 30.716 719.986 31.444V31.654C719.986 32.382 719.832 33.012 719.524 33.544C719.216 34.076 718.791 34.4867 718.25 34.776C717.708 35.056 717.092 35.196 716.402 35.196ZM716.402 33.908C717.036 33.908 717.55 33.7073 717.942 33.306C718.343 32.8953 718.544 32.3307 718.544 31.612V31.486C718.544 30.7673 718.348 30.2073 717.956 29.806C717.564 29.3953 717.046 29.19 716.402 29.19C715.776 29.19 715.263 29.3953 714.862 29.806C714.47 30.2073 714.274 30.7673 714.274 31.486V31.612C714.274 32.3307 714.47 32.8953 714.862 33.306C715.263 33.7073 715.776 33.908 716.402 33.908ZM724.637 35.196C724.067 35.196 723.54 35.056 723.055 34.776C722.569 34.496 722.177 34.0947 721.879 33.572C721.589 33.04 721.445 32.4007 721.445 31.654V31.444C721.445 30.7067 721.589 30.072 721.879 29.54C722.168 29.008 722.555 28.602 723.041 28.322C723.526 28.042 724.058 27.902 724.637 27.902C725.085 27.902 725.458 27.958 725.757 28.07C726.065 28.182 726.317 28.3267 726.513 28.504C726.709 28.672 726.858 28.8493 726.961 29.036H727.185V25.2H728.627V35H727.213V34.02H726.989C726.811 34.3187 726.541 34.5893 726.177 34.832C725.822 35.0747 725.309 35.196 724.637 35.196ZM725.043 33.936C725.668 33.936 726.181 33.7353 726.583 33.334C726.993 32.9327 727.199 32.3587 727.199 31.612V31.486C727.199 30.7487 726.998 30.1793 726.597 29.778C726.195 29.3767 725.677 29.176 725.043 29.176C724.427 29.176 723.913 29.3767 723.503 29.778C723.101 30.1793 722.901 30.7487 722.901 31.486V31.612C722.901 32.3587 723.101 32.9327 723.503 33.334C723.913 33.7353 724.427 33.936 725.043 33.936ZM733.396 35.126C732.873 35.126 732.406 35.0093 731.996 34.776C731.585 34.5427 731.263 34.2113 731.03 33.782C730.796 33.3527 730.68 32.8393 730.68 32.242V28.098H732.122V32.144C732.122 32.7413 732.271 33.1847 732.57 33.474C732.868 33.754 733.284 33.894 733.816 33.894C734.404 33.894 734.875 33.698 735.23 33.306C735.594 32.9047 735.776 32.3307 735.776 31.584V28.098H737.218V35H735.804V33.964H735.58C735.449 34.244 735.216 34.51 734.88 34.762C734.544 35.0047 734.049 35.126 733.396 35.126ZM742.555 35.196C741.892 35.196 741.29 35.056 740.749 34.776C740.217 34.496 739.792 34.09 739.475 33.558C739.167 33.026 739.013 32.3867 739.013 31.64V31.458C739.013 30.7113 739.167 30.0767 739.475 29.554C739.792 29.022 740.217 28.616 740.749 28.336C741.29 28.0467 741.892 27.902 742.555 27.902C743.218 27.902 743.782 28.0233 744.249 28.266C744.716 28.5087 745.089 28.8307 745.369 29.232C745.658 29.6333 745.845 30.0767 745.929 30.562L744.529 30.856C744.482 30.548 744.384 30.268 744.235 30.016C744.086 29.764 743.876 29.5633 743.605 29.414C743.334 29.2647 742.994 29.19 742.583 29.19C742.182 29.19 741.818 29.2833 741.491 29.47C741.174 29.6473 740.922 29.9087 740.735 30.254C740.548 30.59 740.455 31.0007 740.455 31.486V31.612C740.455 32.0973 740.548 32.5127 740.735 32.858C740.922 33.2033 741.174 33.4647 741.491 33.642C741.818 33.8193 742.182 33.908 742.583 33.908C743.19 33.908 743.652 33.754 743.969 33.446C744.286 33.1287 744.487 32.7273 744.571 32.242L745.971 32.564C745.859 33.04 745.658 33.4787 745.369 33.88C745.089 34.2813 744.716 34.6033 744.249 34.846C743.782 35.0793 743.218 35.196 742.555 35.196ZM749.965 35C749.545 35 749.209 34.874 748.957 34.622C748.714 34.37 748.593 34.034 748.593 33.614V29.316H746.689V28.098H748.593V25.816H750.035V28.098H752.093V29.316H750.035V33.362C750.035 33.642 750.165 33.782 750.427 33.782H751.869V35H749.965Z" fill="#6C7275"/>
<path d="M798.162 35.196C796.967 35.196 796.02 34.86 795.32 34.188C794.62 33.5067 794.27 32.5267 794.27 31.248V28.952C794.27 27.6733 794.62 26.698 795.32 26.026C796.02 25.3447 796.967 25.004 798.162 25.004C799.338 25.004 800.243 25.3307 800.878 25.984C801.522 26.6373 801.844 27.5287 801.844 28.658V28.742H800.346V28.616C800.346 27.9533 800.164 27.412 799.8 26.992C799.445 26.572 798.899 26.362 798.162 26.362C797.415 26.362 796.832 26.5907 796.412 27.048C795.992 27.496 795.782 28.1213 795.782 28.924V31.276C795.782 32.0693 795.992 32.6947 796.412 33.152C796.832 33.6093 797.415 33.838 798.162 33.838C798.899 33.838 799.445 33.628 799.8 33.208C800.164 32.7787 800.346 32.2373 800.346 31.584V31.346H801.844V31.542C801.844 32.6713 801.522 33.5627 800.878 34.216C800.243 34.8693 799.338 35.196 798.162 35.196ZM806.794 35.196C806.103 35.196 805.487 35.056 804.946 34.776C804.414 34.4867 803.994 34.076 803.686 33.544C803.378 33.012 803.224 32.382 803.224 31.654V31.444C803.224 30.716 803.378 30.0907 803.686 29.568C803.994 29.036 804.414 28.6253 804.946 28.336C805.487 28.0467 806.103 27.902 806.794 27.902C807.485 27.902 808.101 28.0467 808.642 28.336C809.183 28.6253 809.608 29.036 809.916 29.568C810.224 30.0907 810.378 30.716 810.378 31.444V31.654C810.378 32.382 810.224 33.012 809.916 33.544C809.608 34.076 809.183 34.4867 808.642 34.776C808.101 35.056 807.485 35.196 806.794 35.196ZM806.794 33.908C807.429 33.908 807.942 33.7073 808.334 33.306C808.735 32.8953 808.936 32.3307 808.936 31.612V31.486C808.936 30.7673 808.74 30.2073 808.348 29.806C807.956 29.3953 807.438 29.19 806.794 29.19C806.169 29.19 805.655 29.3953 805.254 29.806C804.862 30.2073 804.666 30.7673 804.666 31.486V31.612C804.666 32.3307 804.862 32.8953 805.254 33.306C805.655 33.7073 806.169 33.908 806.794 33.908ZM812.173 35V28.098H813.587V29.134H813.811C813.942 28.854 814.175 28.5927 814.511 28.35C814.847 28.1073 815.347 27.986 816.009 27.986C816.532 27.986 816.994 28.1027 817.395 28.336C817.806 28.5693 818.128 28.9007 818.361 29.33C818.595 29.75 818.711 30.2587 818.711 30.856V35H817.269V30.968C817.269 30.3707 817.12 29.932 816.821 29.652C816.523 29.3627 816.112 29.218 815.589 29.218C814.992 29.218 814.511 29.414 814.147 29.806C813.793 30.198 813.615 30.7673 813.615 31.514V35H812.173ZM823.185 35C822.765 35 822.429 34.874 822.177 34.622C821.935 34.37 821.813 34.034 821.813 33.614V29.316H819.909V28.098H821.813V25.816H823.255V28.098H825.313V29.316H823.255V33.362C823.255 33.642 823.386 33.782 823.647 33.782H825.089V35H823.185ZM829.136 35.196C828.641 35.196 828.198 35.112 827.806 34.944C827.423 34.776 827.115 34.5287 826.882 34.202C826.658 33.8753 826.546 33.4787 826.546 33.012C826.546 32.536 826.658 32.144 826.882 31.836C827.115 31.5187 827.428 31.2807 827.82 31.122C828.221 30.9633 828.674 30.884 829.178 30.884H831.278V30.436C831.278 30.0347 831.156 29.7127 830.914 29.47C830.671 29.2273 830.298 29.106 829.794 29.106C829.299 29.106 828.921 29.2227 828.66 29.456C828.398 29.6893 828.226 29.9927 828.142 30.366L826.798 29.932C826.91 29.5587 827.087 29.2227 827.33 28.924C827.582 28.616 827.913 28.3687 828.324 28.182C828.734 27.9953 829.229 27.902 829.808 27.902C830.704 27.902 831.408 28.1307 831.922 28.588C832.435 29.0453 832.692 29.694 832.692 30.534V33.376C832.692 33.656 832.822 33.796 833.084 33.796H833.672V35H832.594C832.267 35 832.001 34.916 831.796 34.748C831.59 34.58 831.488 34.3513 831.488 34.062V34.02H831.278C831.203 34.16 831.091 34.3233 830.942 34.51C830.792 34.6967 830.573 34.86 830.284 35C829.994 35.1307 829.612 35.196 829.136 35.196ZM829.346 34.006C829.924 34.006 830.391 33.8427 830.746 33.516C831.1 33.18 831.278 32.7227 831.278 32.144V32.004H829.262C828.879 32.004 828.571 32.088 828.338 32.256C828.104 32.4147 827.988 32.6527 827.988 32.97C827.988 33.2873 828.109 33.5393 828.352 33.726C828.594 33.9127 828.926 34.006 829.346 34.006ZM838.116 35.196C837.453 35.196 836.851 35.056 836.31 34.776C835.778 34.496 835.353 34.09 835.036 33.558C834.728 33.026 834.574 32.3867 834.574 31.64V31.458C834.574 30.7113 834.728 30.0767 835.036 29.554C835.353 29.022 835.778 28.616 836.31 28.336C836.851 28.0467 837.453 27.902 838.116 27.902C838.778 27.902 839.343 28.0233 839.81 28.266C840.276 28.5087 840.65 28.8307 840.93 29.232C841.219 29.6333 841.406 30.0767 841.49 30.562L840.09 30.856C840.043 30.548 839.945 30.268 839.796 30.016C839.646 29.764 839.436 29.5633 839.166 29.414C838.895 29.2647 838.554 29.19 838.144 29.19C837.742 29.19 837.378 29.2833 837.052 29.47C836.734 29.6473 836.482 29.9087 836.296 30.254C836.109 30.59 836.016 31.0007 836.016 31.486V31.612C836.016 32.0973 836.109 32.5127 836.296 32.858C836.482 33.2033 836.734 33.4647 837.052 33.642C837.378 33.8193 837.742 33.908 838.144 33.908C838.75 33.908 839.212 33.754 839.53 33.446C839.847 33.1287 840.048 32.7273 840.132 32.242L841.532 32.564C841.42 33.04 841.219 33.4787 840.93 33.88C840.65 34.2813 840.276 34.6033 839.81 34.846C839.343 35.0793 838.778 35.196 838.116 35.196ZM845.525 35C845.105 35 844.769 34.874 844.517 34.622C844.274 34.37 844.153 34.034 844.153 33.614V29.316H842.249V28.098H844.153V25.816H845.595V28.098H847.653V29.316H845.595V33.362C845.595 33.642 845.726 33.782 845.987 33.782H847.429V35H845.525ZM856.542 35.196C855.767 35.196 855.1 35.056 854.54 34.776C853.989 34.496 853.56 34.0947 853.252 33.572C852.953 33.04 852.804 32.396 852.804 31.64V25.2H854.33V31.682C854.33 32.3727 854.521 32.9047 854.904 33.278C855.286 33.6513 855.832 33.838 856.542 33.838C857.251 33.838 857.797 33.6513 858.18 33.278C858.562 32.9047 858.754 32.3727 858.754 31.682V25.2H860.266V31.64C860.266 32.396 860.116 33.04 859.818 33.572C859.519 34.0947 859.09 34.496 858.53 34.776C857.97 35.056 857.307 35.196 856.542 35.196ZM865.109 35.196C864.231 35.196 863.503 35 862.925 34.608C862.346 34.216 861.991 33.6233 861.861 32.83L863.205 32.508C863.279 32.8907 863.405 33.194 863.583 33.418C863.76 33.642 863.979 33.8007 864.241 33.894C864.511 33.9873 864.801 34.034 865.109 34.034C865.566 34.034 865.916 33.9453 866.159 33.768C866.411 33.5907 866.537 33.362 866.537 33.082C866.537 32.802 866.42 32.5967 866.187 32.466C865.953 32.3353 865.608 32.228 865.151 32.144L864.675 32.06C864.208 31.976 863.783 31.8547 863.401 31.696C863.018 31.5373 862.715 31.318 862.491 31.038C862.267 30.758 862.155 30.3987 862.155 29.96C862.155 29.3067 862.397 28.8027 862.883 28.448C863.368 28.084 864.012 27.902 864.815 27.902C865.589 27.902 866.224 28.0793 866.719 28.434C867.223 28.7793 867.549 29.2507 867.699 29.848L866.355 30.226C866.271 29.806 866.093 29.512 865.823 29.344C865.552 29.1667 865.216 29.078 864.815 29.078C864.423 29.078 864.115 29.1527 863.891 29.302C863.667 29.442 863.555 29.6427 863.555 29.904C863.555 30.184 863.662 30.3893 863.877 30.52C864.101 30.6507 864.399 30.7487 864.773 30.814L865.263 30.898C865.757 30.982 866.21 31.0987 866.621 31.248C867.031 31.3973 867.353 31.612 867.587 31.892C867.829 32.172 867.951 32.5453 867.951 33.012C867.951 33.7027 867.694 34.2393 867.181 34.622C866.667 35.0047 865.977 35.196 865.109 35.196Z" fill="#6C7275"/>
<path d="M1168.5 36.5L1172 40M1171 29.5C1171 24.2533 1166.75 20 1161.5 20C1156.25 20 1152 24.2533 1152 29.5C1152 34.7467 1156.25 39 1161.5 39C1166.75 39 1171 34.7467 1171 29.5Z" stroke="#141718" stroke-width="1.5" stroke-linecap="round" stroke-linejoin="round"/>
<path d="M1208.56 37.5488C1207.57 34.8918 1205 33 1202 33C1199 33 1196.43 34.8918 1195.44 37.5488M1208.56 37.5488C1210.67 35.7154 1212 33.0134 1212 30C1212 24.4772 1207.52 20 1202 20C1196.48 20 1192 24.4772 1192 30C1192 33.0134 1193.33 35.7154 1195.44 37.5488M1208.56 37.5488C1206.8 39.0756 1204.51 40 1202 40C1199.49 40 1197.2 39.0756 1195.44 37.5488M1205 27C1205 28.6569 1203.66 30 1202 30C1200.34 30 1199 28.6569 1199 27C1199 25.3431 1200.34 24 1202 24C1203.66 24 1205 25.3431 1205 27Z" stroke="#141718" stroke-width="1.5" stroke-linejoin="round"/>
<g clip-path="url(#clip0_1_1999)">
<circle cx="1270" cy="30" r="10" fill="#141718"/>
<path d="M1266.93 34V32.6705L1270.03 29.794C1270.3 29.5384 1270.52 29.3082 1270.7 29.1037C1270.88 28.8991 1271.02 28.6989 1271.11 28.5028C1271.21 28.304 1271.25 28.0895 1271.25 27.8594C1271.25 27.6037 1271.2 27.3835 1271.08 27.1989C1270.96 27.0114 1270.8 26.8679 1270.6 26.7685C1270.4 26.6662 1270.17 26.6151 1269.92 26.6151C1269.65 26.6151 1269.42 26.669 1269.22 26.777C1269.02 26.8849 1268.86 27.0398 1268.76 27.2415C1268.65 27.4432 1268.59 27.6832 1268.59 27.9616H1266.84C1266.84 27.3906 1266.97 26.8949 1267.23 26.4744C1267.49 26.054 1267.85 25.7287 1268.32 25.4986C1268.78 25.2685 1269.32 25.1534 1269.93 25.1534C1270.55 25.1534 1271.1 25.2642 1271.56 25.4858C1272.03 25.7045 1272.39 26.0085 1272.65 26.3977C1272.91 26.7869 1273.03 27.233 1273.03 27.7358C1273.03 28.0653 1272.97 28.3906 1272.84 28.7116C1272.71 29.0327 1272.48 29.3892 1272.15 29.7812C1271.82 30.1705 1271.36 30.6378 1270.76 31.1832L1269.48 32.4318V32.4915H1273.15V34H1266.93Z" fill="white"/>
</g>
<path d="M1240 24L1240 25C1240 26.6569 1241.34 28 1243 28C1244.66 28 1246 26.6569 1246 25V24" stroke="#141718" stroke-width="1.5" stroke-linecap="round" stroke-linejoin="round"/>
<path d="M1246.61 21H1239.39C1237.43 21 1235.76 22.4137 1235.44 24.3424L1233.78 34.3424C1233.37 36.7805 1235.25 39 1237.72 39H1248.28C1250.75 39 1252.63 36.7805 1252.22 34.3424L1250.56 24.3424C1250.24 22.4137 1248.57 21 1246.61 21Z" stroke="#141718" stroke-width="1.5" stroke-linejoin="round"/>
<defs>
<clipPath id="clip0_1_1999">
<rect width="20" height="20" fill="white" transform="translate(1260 20)"/>
</clipPath>
</defs>
</svg>
