<svg width="1440" height="316" viewBox="0 0 1440 316" fill="none" xmlns="http://www.w3.org/2000/svg">
<rect width="1440" height="316" fill="white"/>
<rect width="262" height="220" transform="translate(160 48)" fill="#F3F5F7"/>
<path d="M220 134V110M220 134H224M220 134H210M220 110C220 105.582 216.418 102 212 102H204C199.582 102 196 105.582 196 110V126C196 129.73 198.553 132.865 202.008 133.75M220 110H226.418C227.434 110 228.413 110.387 229.154 111.082L234.736 116.315C235.542 117.071 236 118.127 236 119.233V130C236 132.209 234.209 134 232 134M232 134C232 136.209 230.209 138 228 138C225.791 138 224 136.209 224 134M232 134C232 131.791 230.209 130 228 130C225.791 130 224 131.791 224 134M210 134C210 136.209 208.209 138 206 138C203.791 138 202 136.209 202 134C202 133.916 202.003 133.833 202.008 133.75M210 134C210 131.791 208.209 130 206 130C203.875 130 202.137 131.657 202.008 133.75" stroke="#141718" stroke-width="2.5"/>
<path d="M212 112H208" stroke="#141718" stroke-width="2.5" stroke-linecap="round" stroke-linejoin="round"/>
<path d="M212 120H204" stroke="#141718" stroke-width="2.5" stroke-linecap="round" stroke-linejoin="round"/>
<path d="M201.68 167.1V168.96H195.78V173.06H200.38V174.92H195.78V181H193.5V167.1H201.68ZM206.073 171.58C206.406 171.02 206.846 170.587 207.393 170.28C207.953 169.96 208.613 169.8 209.373 169.8V172.16H208.793C207.9 172.16 207.22 172.387 206.753 172.84C206.3 173.293 206.073 174.08 206.073 175.2V181H203.793V169.98H206.073V171.58ZM221.569 175.22C221.569 175.633 221.542 176.007 221.489 176.34H213.069C213.135 177.22 213.462 177.927 214.049 178.46C214.635 178.993 215.355 179.26 216.209 179.26C217.435 179.26 218.302 178.747 218.809 177.72H221.269C220.935 178.733 220.329 179.567 219.449 180.22C218.582 180.86 217.502 181.18 216.209 181.18C215.155 181.18 214.209 180.947 213.369 180.48C212.542 180 211.889 179.333 211.409 178.48C210.942 177.613 210.709 176.613 210.709 175.48C210.709 174.347 210.935 173.353 211.389 172.5C211.855 171.633 212.502 170.967 213.329 170.5C214.169 170.033 215.129 169.8 216.209 169.8C217.249 169.8 218.175 170.027 218.989 170.48C219.802 170.933 220.435 171.573 220.889 172.4C221.342 173.213 221.569 174.153 221.569 175.22ZM219.189 174.5C219.175 173.66 218.875 172.987 218.289 172.48C217.702 171.973 216.975 171.72 216.109 171.72C215.322 171.72 214.649 171.973 214.089 172.48C213.529 172.973 213.195 173.647 213.089 174.5H219.189ZM233.913 175.22C233.913 175.633 233.886 176.007 233.833 176.34H225.413C225.479 177.22 225.806 177.927 226.393 178.46C226.979 178.993 227.699 179.26 228.553 179.26C229.779 179.26 230.646 178.747 231.153 177.72H233.612C233.279 178.733 232.673 179.567 231.793 180.22C230.926 180.86 229.846 181.18 228.553 181.18C227.499 181.18 226.553 180.947 225.713 180.48C224.886 180 224.233 179.333 223.753 178.48C223.286 177.613 223.053 176.613 223.053 175.48C223.053 174.347 223.279 173.353 223.733 172.5C224.199 171.633 224.846 170.967 225.673 170.5C226.513 170.033 227.473 169.8 228.553 169.8C229.593 169.8 230.519 170.027 231.333 170.48C232.146 170.933 232.779 171.573 233.233 172.4C233.686 173.213 233.913 174.153 233.913 175.22ZM231.533 174.5C231.519 173.66 231.219 172.987 230.633 172.48C230.046 171.973 229.319 171.72 228.453 171.72C227.666 171.72 226.993 171.973 226.433 172.48C225.873 172.973 225.539 173.647 225.433 174.5H231.533ZM245.932 181.14C244.998 181.14 244.158 180.98 243.412 180.66C242.665 180.327 242.078 179.86 241.652 179.26C241.225 178.66 241.012 177.96 241.012 177.16H243.452C243.505 177.76 243.738 178.253 244.152 178.64C244.578 179.027 245.172 179.22 245.932 179.22C246.718 179.22 247.332 179.033 247.772 178.66C248.212 178.273 248.432 177.78 248.432 177.18C248.432 176.713 248.292 176.333 248.012 176.04C247.745 175.747 247.405 175.52 246.992 175.36C246.592 175.2 246.032 175.027 245.312 174.84C244.405 174.6 243.665 174.36 243.092 174.12C242.532 173.867 242.052 173.48 241.652 172.96C241.252 172.44 241.052 171.747 241.052 170.88C241.052 170.08 241.252 169.38 241.652 168.78C242.052 168.18 242.612 167.72 243.332 167.4C244.052 167.08 244.885 166.92 245.832 166.92C247.178 166.92 248.278 167.26 249.132 167.94C249.998 168.607 250.478 169.527 250.572 170.7H248.052C248.012 170.193 247.772 169.76 247.332 169.4C246.892 169.04 246.312 168.86 245.592 168.86C244.938 168.86 244.405 169.027 243.992 169.36C243.578 169.693 243.372 170.173 243.372 170.8C243.372 171.227 243.498 171.58 243.752 171.86C244.018 172.127 244.352 172.34 244.752 172.5C245.152 172.66 245.698 172.833 246.392 173.02C247.312 173.273 248.058 173.527 248.632 173.78C249.218 174.033 249.712 174.427 250.112 174.96C250.525 175.48 250.732 176.18 250.732 177.06C250.732 177.767 250.538 178.433 250.152 179.06C249.778 179.687 249.225 180.193 248.492 180.58C247.772 180.953 246.918 181.14 245.932 181.14ZM259.122 169.8C259.962 169.8 260.709 169.98 261.362 170.34C262.029 170.7 262.549 171.233 262.922 171.94C263.309 172.647 263.502 173.5 263.502 174.5V181H261.242V174.84C261.242 173.853 260.995 173.1 260.502 172.58C260.009 172.047 259.335 171.78 258.482 171.78C257.629 171.78 256.949 172.047 256.442 172.58C255.949 173.1 255.702 173.853 255.702 174.84V181H253.422V166.2H255.702V171.26C256.089 170.793 256.575 170.433 257.162 170.18C257.762 169.927 258.415 169.8 259.122 169.8ZM267.57 168.52C267.157 168.52 266.81 168.38 266.53 168.1C266.25 167.82 266.11 167.473 266.11 167.06C266.11 166.647 266.25 166.3 266.53 166.02C266.81 165.74 267.157 165.6 267.57 165.6C267.97 165.6 268.31 165.74 268.59 166.02C268.87 166.3 269.01 166.647 269.01 167.06C269.01 167.473 268.87 167.82 268.59 168.1C268.31 168.38 267.97 168.52 267.57 168.52ZM268.69 169.98V181H266.41V169.98H268.69ZM273.964 171.6C274.35 171.093 274.877 170.667 275.544 170.32C276.21 169.973 276.964 169.8 277.804 169.8C278.764 169.8 279.637 170.04 280.424 170.52C281.224 170.987 281.85 171.647 282.304 172.5C282.757 173.353 282.984 174.333 282.984 175.44C282.984 176.547 282.757 177.54 282.304 178.42C281.85 179.287 281.224 179.967 280.424 180.46C279.637 180.94 278.764 181.18 277.804 181.18C276.964 181.18 276.217 181.013 275.564 180.68C274.91 180.333 274.377 179.907 273.964 179.4V186.24H271.684V169.98H273.964V171.6ZM280.664 175.44C280.664 174.68 280.504 174.027 280.184 173.48C279.877 172.92 279.464 172.5 278.944 172.22C278.437 171.927 277.89 171.78 277.304 171.78C276.73 171.78 276.184 171.927 275.664 172.22C275.157 172.513 274.744 172.94 274.424 173.5C274.117 174.06 273.964 174.72 273.964 175.48C273.964 176.24 274.117 176.907 274.424 177.48C274.744 178.04 275.157 178.467 275.664 178.76C276.184 179.053 276.73 179.2 277.304 179.2C277.89 179.2 278.437 179.053 278.944 178.76C279.464 178.453 279.877 178.013 280.184 177.44C280.504 176.867 280.664 176.2 280.664 175.44ZM287.518 171.6C287.905 171.093 288.432 170.667 289.098 170.32C289.765 169.973 290.518 169.8 291.358 169.8C292.318 169.8 293.192 170.04 293.978 170.52C294.778 170.987 295.405 171.647 295.858 172.5C296.312 173.353 296.538 174.333 296.538 175.44C296.538 176.547 296.312 177.54 295.858 178.42C295.405 179.287 294.778 179.967 293.978 180.46C293.192 180.94 292.318 181.18 291.358 181.18C290.518 181.18 289.772 181.013 289.118 180.68C288.465 180.333 287.932 179.907 287.518 179.4V186.24H285.238V169.98H287.518V171.6ZM294.218 175.44C294.218 174.68 294.058 174.027 293.738 173.48C293.432 172.92 293.018 172.5 292.498 172.22C291.992 171.927 291.445 171.78 290.858 171.78C290.285 171.78 289.738 171.927 289.218 172.22C288.712 172.513 288.298 172.94 287.978 173.5C287.672 174.06 287.518 174.72 287.518 175.48C287.518 176.24 287.672 176.907 287.978 177.48C288.298 178.04 288.712 178.467 289.218 178.76C289.738 179.053 290.285 179.2 290.858 179.2C291.445 179.2 291.992 179.053 292.498 178.76C293.018 178.453 293.432 178.013 293.738 177.44C294.058 176.867 294.218 176.2 294.218 175.44ZM299.953 168.52C299.54 168.52 299.193 168.38 298.913 168.1C298.633 167.82 298.493 167.473 298.493 167.06C298.493 166.647 298.633 166.3 298.913 166.02C299.193 165.74 299.54 165.6 299.953 165.6C300.353 165.6 300.693 165.74 300.973 166.02C301.253 166.3 301.393 166.647 301.393 167.06C301.393 167.473 301.253 167.82 300.973 168.1C300.693 168.38 300.353 168.52 299.953 168.52ZM301.073 169.98V181H298.793V169.98H301.073ZM309.626 169.8C310.493 169.8 311.266 169.98 311.946 170.34C312.64 170.7 313.18 171.233 313.566 171.94C313.953 172.647 314.146 173.5 314.146 174.5V181H311.886V174.84C311.886 173.853 311.64 173.1 311.146 172.58C310.653 172.047 309.98 171.78 309.126 171.78C308.273 171.78 307.593 172.047 307.086 172.58C306.593 173.1 306.346 173.853 306.346 174.84V181H304.066V169.98H306.346V171.24C306.72 170.787 307.193 170.433 307.766 170.18C308.353 169.927 308.973 169.8 309.626 169.8ZM321.495 169.8C322.348 169.8 323.101 169.973 323.755 170.32C324.421 170.653 324.941 171.073 325.315 171.58V169.98H327.615V181.18C327.615 182.193 327.401 183.093 326.975 183.88C326.548 184.68 325.928 185.307 325.115 185.76C324.315 186.213 323.355 186.44 322.235 186.44C320.741 186.44 319.501 186.087 318.515 185.38C317.528 184.687 316.968 183.74 316.835 182.54H319.095C319.268 183.113 319.635 183.573 320.195 183.92C320.768 184.28 321.448 184.46 322.235 184.46C323.155 184.46 323.895 184.18 324.455 183.62C325.028 183.06 325.315 182.247 325.315 181.18V179.34C324.928 179.86 324.401 180.3 323.735 180.66C323.081 181.007 322.335 181.18 321.495 181.18C320.535 181.18 319.655 180.94 318.855 180.46C318.068 179.967 317.441 179.287 316.975 178.42C316.521 177.54 316.295 176.547 316.295 175.44C316.295 174.333 316.521 173.353 316.975 172.5C317.441 171.647 318.068 170.987 318.855 170.52C319.655 170.04 320.535 169.8 321.495 169.8ZM325.315 175.48C325.315 174.72 325.155 174.06 324.835 173.5C324.528 172.94 324.121 172.513 323.615 172.22C323.108 171.927 322.561 171.78 321.975 171.78C321.388 171.78 320.841 171.927 320.335 172.22C319.828 172.5 319.415 172.92 319.095 173.48C318.788 174.027 318.635 174.68 318.635 175.44C318.635 176.2 318.788 176.867 319.095 177.44C319.415 178.013 319.828 178.453 320.335 178.76C320.855 179.053 321.401 179.2 321.975 179.2C322.561 179.2 323.108 179.053 323.615 178.76C324.121 178.467 324.528 178.04 324.835 177.48C325.155 176.907 325.315 176.24 325.315 175.48Z" fill="#141718"/>
<path d="M197.502 213.098C196.597 213.098 195.771 212.888 195.024 212.468C194.277 212.039 193.685 211.446 193.246 210.69C192.817 209.925 192.602 209.066 192.602 208.114C192.602 207.162 192.817 206.308 193.246 205.552C193.685 204.787 194.277 204.194 195.024 203.774C195.771 203.345 196.597 203.13 197.502 203.13C198.417 203.13 199.247 203.345 199.994 203.774C200.741 204.194 201.329 204.782 201.758 205.538C202.187 206.294 202.402 207.153 202.402 208.114C202.402 209.075 202.187 209.934 201.758 210.69C201.329 211.446 200.741 212.039 199.994 212.468C199.247 212.888 198.417 213.098 197.502 213.098ZM197.502 211.992C198.183 211.992 198.795 211.833 199.336 211.516C199.887 211.199 200.316 210.746 200.624 210.158C200.941 209.57 201.1 208.889 201.1 208.114C201.1 207.33 200.941 206.649 200.624 206.07C200.316 205.482 199.891 205.029 199.35 204.712C198.809 204.395 198.193 204.236 197.502 204.236C196.811 204.236 196.195 204.395 195.654 204.712C195.113 205.029 194.683 205.482 194.366 206.07C194.058 206.649 193.904 207.33 193.904 208.114C193.904 208.889 194.058 209.57 194.366 210.158C194.683 210.746 195.113 211.199 195.654 211.516C196.205 211.833 196.821 211.992 197.502 211.992ZM205.358 206.574C205.582 206.135 205.899 205.795 206.31 205.552C206.73 205.309 207.239 205.188 207.836 205.188V206.504H207.5C206.072 206.504 205.358 207.279 205.358 208.828V213H204.084V205.328H205.358V206.574ZM208.831 209.136C208.831 208.352 208.989 207.666 209.307 207.078C209.624 206.481 210.058 206.019 210.609 205.692C211.169 205.365 211.794 205.202 212.485 205.202C213.082 205.202 213.637 205.342 214.151 205.622C214.664 205.893 215.056 206.252 215.327 206.7V202.64H216.615V213H215.327V211.558C215.075 212.015 214.701 212.393 214.207 212.692C213.712 212.981 213.133 213.126 212.471 213.126C211.789 213.126 211.169 212.958 210.609 212.622C210.058 212.286 209.624 211.815 209.307 211.208C208.989 210.601 208.831 209.911 208.831 209.136ZM215.327 209.15C215.327 208.571 215.21 208.067 214.977 207.638C214.743 207.209 214.426 206.882 214.025 206.658C213.633 206.425 213.199 206.308 212.723 206.308C212.247 206.308 211.813 206.42 211.421 206.644C211.029 206.868 210.716 207.195 210.483 207.624C210.249 208.053 210.133 208.557 210.133 209.136C210.133 209.724 210.249 210.237 210.483 210.676C210.716 211.105 211.029 211.437 211.421 211.67C211.813 211.894 212.247 212.006 212.723 212.006C213.199 212.006 213.633 211.894 214.025 211.67C214.426 211.437 214.743 211.105 214.977 210.676C215.21 210.237 215.327 209.729 215.327 209.15ZM225.767 208.87C225.767 209.113 225.753 209.369 225.725 209.64H219.593C219.64 210.396 219.897 210.989 220.363 211.418C220.839 211.838 221.413 212.048 222.085 212.048C222.636 212.048 223.093 211.922 223.457 211.67C223.831 211.409 224.092 211.063 224.241 210.634H225.613C225.408 211.371 224.997 211.973 224.381 212.44C223.765 212.897 223 213.126 222.085 213.126C221.357 213.126 220.704 212.963 220.125 212.636C219.556 212.309 219.108 211.847 218.781 211.25C218.455 210.643 218.291 209.943 218.291 209.15C218.291 208.357 218.45 207.661 218.767 207.064C219.085 206.467 219.528 206.009 220.097 205.692C220.676 205.365 221.339 205.202 222.085 205.202C222.813 205.202 223.457 205.361 224.017 205.678C224.577 205.995 225.007 206.434 225.305 206.994C225.613 207.545 225.767 208.17 225.767 208.87ZM224.451 208.604C224.451 208.119 224.344 207.703 224.129 207.358C223.915 207.003 223.621 206.737 223.247 206.56C222.883 206.373 222.477 206.28 222.029 206.28C221.385 206.28 220.835 206.485 220.377 206.896C219.929 207.307 219.673 207.876 219.607 208.604H224.451ZM228.723 206.574C228.947 206.135 229.264 205.795 229.675 205.552C230.095 205.309 230.604 205.188 231.201 205.188V206.504H230.865C229.437 206.504 228.723 207.279 228.723 208.828V213H227.449V205.328H228.723V206.574ZM235.928 209.136C235.928 208.352 236.087 207.666 236.404 207.078C236.722 206.481 237.156 206.019 237.706 205.692C238.266 205.365 238.887 205.202 239.568 205.202C240.24 205.202 240.824 205.347 241.318 205.636C241.813 205.925 242.182 206.289 242.424 206.728V205.328H243.712V213H242.424V211.572C242.172 212.02 241.794 212.393 241.29 212.692C240.796 212.981 240.217 213.126 239.554 213.126C238.873 213.126 238.257 212.958 237.706 212.622C237.156 212.286 236.722 211.815 236.404 211.208C236.087 210.601 235.928 209.911 235.928 209.136ZM242.424 209.15C242.424 208.571 242.308 208.067 242.074 207.638C241.841 207.209 241.524 206.882 241.122 206.658C240.73 206.425 240.296 206.308 239.82 206.308C239.344 206.308 238.91 206.42 238.518 206.644C238.126 206.868 237.814 207.195 237.58 207.624C237.347 208.053 237.23 208.557 237.23 209.136C237.23 209.724 237.347 210.237 237.58 210.676C237.814 211.105 238.126 211.437 238.518 211.67C238.91 211.894 239.344 212.006 239.82 212.006C240.296 212.006 240.73 211.894 241.122 211.67C241.524 211.437 241.841 211.105 242.074 210.676C242.308 210.237 242.424 209.729 242.424 209.15ZM247.139 206.756C247.4 206.299 247.783 205.925 248.287 205.636C248.791 205.347 249.365 205.202 250.009 205.202C250.7 205.202 251.32 205.365 251.871 205.692C252.422 206.019 252.856 206.481 253.173 207.078C253.49 207.666 253.649 208.352 253.649 209.136C253.649 209.911 253.49 210.601 253.173 211.208C252.856 211.815 252.417 212.286 251.857 212.622C251.306 212.958 250.69 213.126 250.009 213.126C249.346 213.126 248.763 212.981 248.259 212.692C247.764 212.403 247.391 212.034 247.139 211.586V213H245.865V202.64H247.139V206.756ZM252.347 209.136C252.347 208.557 252.23 208.053 251.997 207.624C251.764 207.195 251.446 206.868 251.045 206.644C250.653 206.42 250.219 206.308 249.743 206.308C249.276 206.308 248.842 206.425 248.441 206.658C248.049 206.882 247.732 207.213 247.489 207.652C247.256 208.081 247.139 208.581 247.139 209.15C247.139 209.729 247.256 210.237 247.489 210.676C247.732 211.105 248.049 211.437 248.441 211.67C248.842 211.894 249.276 212.006 249.743 212.006C250.219 212.006 250.653 211.894 251.045 211.67C251.446 211.437 251.764 211.105 251.997 210.676C252.23 210.237 252.347 209.724 252.347 209.136ZM258.672 213.126C257.953 213.126 257.3 212.963 256.712 212.636C256.133 212.309 255.676 211.847 255.34 211.25C255.013 210.643 254.85 209.943 254.85 209.15C254.85 208.366 255.018 207.675 255.354 207.078C255.699 206.471 256.166 206.009 256.754 205.692C257.342 205.365 258 205.202 258.728 205.202C259.456 205.202 260.114 205.365 260.702 205.692C261.29 206.009 261.752 206.467 262.088 207.064C262.433 207.661 262.606 208.357 262.606 209.15C262.606 209.943 262.429 210.643 262.074 211.25C261.729 211.847 261.257 212.309 260.66 212.636C260.063 212.963 259.4 213.126 258.672 213.126ZM258.672 212.006C259.129 212.006 259.559 211.899 259.96 211.684C260.361 211.469 260.683 211.147 260.926 210.718C261.178 210.289 261.304 209.766 261.304 209.15C261.304 208.534 261.183 208.011 260.94 207.582C260.697 207.153 260.38 206.835 259.988 206.63C259.596 206.415 259.171 206.308 258.714 206.308C258.247 206.308 257.818 206.415 257.426 206.63C257.043 206.835 256.735 207.153 256.502 207.582C256.269 208.011 256.152 208.534 256.152 209.15C256.152 209.775 256.264 210.303 256.488 210.732C256.721 211.161 257.029 211.483 257.412 211.698C257.795 211.903 258.215 212.006 258.672 212.006ZM267.137 211.824L269.517 205.328H270.875L267.865 213H266.381L263.371 205.328H264.743L267.137 211.824ZM279.129 208.87C279.129 209.113 279.115 209.369 279.087 209.64H272.955C273.001 210.396 273.258 210.989 273.725 211.418C274.201 211.838 274.775 212.048 275.447 212.048C275.997 212.048 276.455 211.922 276.819 211.67C277.192 211.409 277.453 211.063 277.603 210.634H278.975C278.769 211.371 278.359 211.973 277.743 212.44C277.127 212.897 276.361 213.126 275.447 213.126C274.719 213.126 274.065 212.963 273.487 212.636C272.917 212.309 272.469 211.847 272.143 211.25C271.816 210.643 271.653 209.943 271.653 209.15C271.653 208.357 271.811 207.661 272.129 207.064C272.446 206.467 272.889 206.009 273.459 205.692C274.037 205.365 274.7 205.202 275.447 205.202C276.175 205.202 276.819 205.361 277.379 205.678C277.939 205.995 278.368 206.434 278.667 206.994C278.975 207.545 279.129 208.17 279.129 208.87ZM277.813 208.604C277.813 208.119 277.705 207.703 277.491 207.358C277.276 207.003 276.982 206.737 276.609 206.56C276.245 206.373 275.839 206.28 275.391 206.28C274.747 206.28 274.196 206.485 273.739 206.896C273.291 207.307 273.034 207.876 272.969 208.604H277.813ZM290.843 210.326C290.843 210.774 290.731 211.203 290.507 211.614C290.283 212.015 289.952 212.351 289.513 212.622C289.084 212.893 288.566 213.047 287.959 213.084V214.218H287.203V213.084C286.354 213.009 285.663 212.739 285.131 212.272C284.599 211.796 284.328 211.194 284.319 210.466H285.677C285.714 210.858 285.859 211.199 286.111 211.488C286.372 211.777 286.736 211.959 287.203 212.034V208.534C286.578 208.375 286.074 208.212 285.691 208.044C285.308 207.876 284.982 207.615 284.711 207.26C284.44 206.905 284.305 206.429 284.305 205.832C284.305 205.076 284.566 204.451 285.089 203.956C285.621 203.461 286.326 203.186 287.203 203.13V201.968H287.959V203.13C288.752 203.195 289.392 203.452 289.877 203.9C290.362 204.339 290.642 204.913 290.717 205.622H289.359C289.312 205.295 289.168 205.001 288.925 204.74C288.682 204.469 288.36 204.292 287.959 204.208V207.624C288.575 207.783 289.074 207.946 289.457 208.114C289.849 208.273 290.176 208.529 290.437 208.884C290.708 209.239 290.843 209.719 290.843 210.326ZM285.607 205.762C285.607 206.219 285.742 206.569 286.013 206.812C286.284 207.055 286.68 207.255 287.203 207.414V204.18C286.718 204.227 286.33 204.385 286.041 204.656C285.752 204.917 285.607 205.286 285.607 205.762ZM287.959 212.048C288.463 211.992 288.855 211.81 289.135 211.502C289.424 211.194 289.569 210.825 289.569 210.396C289.569 209.939 289.429 209.589 289.149 209.346C288.869 209.094 288.472 208.893 287.959 208.744V212.048ZM292.888 211.978C294.073 211.026 295.002 210.247 295.674 209.64C296.346 209.024 296.91 208.385 297.368 207.722C297.834 207.05 298.068 206.392 298.068 205.748C298.068 205.141 297.918 204.665 297.62 204.32C297.33 203.965 296.859 203.788 296.206 203.788C295.571 203.788 295.076 203.989 294.722 204.39C294.376 204.782 294.19 205.309 294.162 205.972H292.93C292.967 204.927 293.284 204.119 293.882 203.55C294.479 202.981 295.249 202.696 296.192 202.696C297.153 202.696 297.914 202.962 298.474 203.494C299.043 204.026 299.328 204.759 299.328 205.692C299.328 206.467 299.094 207.223 298.628 207.96C298.17 208.688 297.648 209.332 297.06 209.892C296.472 210.443 295.72 211.087 294.806 211.824H299.622V212.888H292.888V211.978ZM301.095 207.834C301.095 206.229 301.356 204.978 301.879 204.082C302.401 203.177 303.316 202.724 304.623 202.724C305.92 202.724 306.83 203.177 307.353 204.082C307.875 204.978 308.137 206.229 308.137 207.834C308.137 209.467 307.875 210.737 307.353 211.642C306.83 212.547 305.92 213 304.623 213C303.316 213 302.401 212.547 301.879 211.642C301.356 210.737 301.095 209.467 301.095 207.834ZM306.877 207.834C306.877 207.022 306.821 206.336 306.709 205.776C306.606 205.207 306.387 204.749 306.051 204.404C305.724 204.059 305.248 203.886 304.623 203.886C303.988 203.886 303.503 204.059 303.167 204.404C302.84 204.749 302.621 205.207 302.509 205.776C302.406 206.336 302.355 207.022 302.355 207.834C302.355 208.674 302.406 209.379 302.509 209.948C302.621 210.517 302.84 210.975 303.167 211.32C303.503 211.665 303.988 211.838 304.623 211.838C305.248 211.838 305.724 211.665 306.051 211.32C306.387 210.975 306.606 210.517 306.709 209.948C306.821 209.379 306.877 208.674 306.877 207.834ZM309.886 207.834C309.886 206.229 310.147 204.978 310.67 204.082C311.192 203.177 312.107 202.724 313.414 202.724C314.711 202.724 315.621 203.177 316.144 204.082C316.666 204.978 316.928 206.229 316.928 207.834C316.928 209.467 316.666 210.737 316.144 211.642C315.621 212.547 314.711 213 313.414 213C312.107 213 311.192 212.547 310.67 211.642C310.147 210.737 309.886 209.467 309.886 207.834ZM315.668 207.834C315.668 207.022 315.612 206.336 315.5 205.776C315.397 205.207 315.178 204.749 314.842 204.404C314.515 204.059 314.039 203.886 313.414 203.886C312.779 203.886 312.294 204.059 311.958 204.404C311.631 204.749 311.412 205.207 311.3 205.776C311.197 206.336 311.146 207.022 311.146 207.834C311.146 208.674 311.197 209.379 311.3 209.948C311.412 210.517 311.631 210.975 311.958 211.32C312.294 211.665 312.779 211.838 313.414 211.838C314.039 211.838 314.515 211.665 314.842 211.32C315.178 210.975 315.397 210.517 315.5 209.948C315.612 209.379 315.668 208.674 315.668 207.834Z" fill="#6C7275"/>
<rect width="262" height="220" transform="translate(446 48)" fill="#F3F5F7"/>
<rect x="482" y="104" width="40" height="32" rx="4" stroke="#141718" stroke-width="2.5"/>
<circle cx="4" cy="4" r="4" transform="matrix(1 0 0 -1 498 124)" stroke="#141718" stroke-width="2.5"/>
<circle cx="2" cy="2" r="2" transform="matrix(1 0 0 -1 512 122)" fill="#141718"/>
<circle cx="2" cy="2" r="2" transform="matrix(1 0 0 -1 488 122)" fill="#141718"/>
<path d="M494.14 167.1V181H491.86V171.48L487.62 181H486.04L481.78 171.48V181H479.5V167.1H481.96L486.84 178L491.7 167.1H494.14ZM501.917 181.18C500.877 181.18 499.937 180.947 499.097 180.48C498.257 180 497.597 179.333 497.117 178.48C496.637 177.613 496.397 176.613 496.397 175.48C496.397 174.36 496.643 173.367 497.137 172.5C497.63 171.633 498.303 170.967 499.157 170.5C500.01 170.033 500.963 169.8 502.017 169.8C503.07 169.8 504.023 170.033 504.877 170.5C505.73 170.967 506.403 171.633 506.897 172.5C507.39 173.367 507.637 174.36 507.637 175.48C507.637 176.6 507.383 177.593 506.877 178.46C506.37 179.327 505.677 180 504.797 180.48C503.93 180.947 502.97 181.18 501.917 181.18ZM501.917 179.2C502.503 179.2 503.05 179.06 503.557 178.78C504.077 178.5 504.497 178.08 504.817 177.52C505.137 176.96 505.297 176.28 505.297 175.48C505.297 174.68 505.143 174.007 504.837 173.46C504.53 172.9 504.123 172.48 503.617 172.2C503.11 171.92 502.563 171.78 501.977 171.78C501.39 171.78 500.843 171.92 500.337 172.2C499.843 172.48 499.45 172.9 499.157 173.46C498.863 174.007 498.717 174.68 498.717 175.48C498.717 176.667 499.017 177.587 499.617 178.24C500.23 178.88 500.997 179.2 501.917 179.2ZM515.451 169.8C516.317 169.8 517.091 169.98 517.771 170.34C518.464 170.7 519.004 171.233 519.391 171.94C519.777 172.647 519.971 173.5 519.971 174.5V181H517.711V174.84C517.711 173.853 517.464 173.1 516.971 172.58C516.477 172.047 515.804 171.78 514.951 171.78C514.097 171.78 513.417 172.047 512.911 172.58C512.417 173.1 512.171 173.853 512.171 174.84V181H509.891V169.98H512.171V171.24C512.544 170.787 513.017 170.433 513.591 170.18C514.177 169.927 514.797 169.8 515.451 169.8ZM532.979 175.22C532.979 175.633 532.952 176.007 532.899 176.34H524.479C524.546 177.22 524.872 177.927 525.459 178.46C526.046 178.993 526.766 179.26 527.619 179.26C528.846 179.26 529.712 178.747 530.219 177.72H532.679C532.346 178.733 531.739 179.567 530.859 180.22C529.992 180.86 528.912 181.18 527.619 181.18C526.566 181.18 525.619 180.947 524.779 180.48C523.952 180 523.299 179.333 522.819 178.48C522.352 177.613 522.119 176.613 522.119 175.48C522.119 174.347 522.346 173.353 522.799 172.5C523.266 171.633 523.912 170.967 524.739 170.5C525.579 170.033 526.539 169.8 527.619 169.8C528.659 169.8 529.586 170.027 530.399 170.48C531.212 170.933 531.846 171.573 532.299 172.4C532.752 173.213 532.979 174.153 532.979 175.22ZM530.599 174.5C530.586 173.66 530.286 172.987 529.699 172.48C529.112 171.973 528.386 171.72 527.519 171.72C526.732 171.72 526.059 171.973 525.499 172.48C524.939 172.973 524.606 173.647 524.499 174.5H530.599ZM545.143 169.98L538.383 186.18H536.023L538.263 180.82L533.923 169.98H536.463L539.563 178.38L542.783 169.98H545.143ZM555.323 172.8V174.72H547.103V172.8H555.323ZM560.843 171.62C561.229 171.087 561.756 170.653 562.423 170.32C563.103 169.973 563.856 169.8 564.683 169.8C565.656 169.8 566.536 170.033 567.323 170.5C568.109 170.967 568.729 171.633 569.183 172.5C569.636 173.353 569.863 174.333 569.863 175.44C569.863 176.547 569.636 177.54 569.183 178.42C568.729 179.287 568.103 179.967 567.303 180.46C566.516 180.94 565.643 181.18 564.683 181.18C563.829 181.18 563.069 181.013 562.403 180.68C561.749 180.347 561.229 179.92 560.843 179.4V181H558.563V166.2H560.843V171.62ZM567.543 175.44C567.543 174.68 567.383 174.027 567.062 173.48C566.756 172.92 566.343 172.5 565.823 172.22C565.316 171.927 564.769 171.78 564.183 171.78C563.609 171.78 563.063 171.927 562.543 172.22C562.036 172.513 561.623 172.94 561.303 173.5C560.996 174.06 560.843 174.72 560.843 175.48C560.843 176.24 560.996 176.907 561.303 177.48C561.623 178.04 562.036 178.467 562.543 178.76C563.063 179.053 563.609 179.2 564.183 179.2C564.769 179.2 565.316 179.053 565.823 178.76C566.343 178.453 566.756 178.013 567.062 177.44C567.383 176.867 567.543 176.2 567.543 175.44ZM571.357 175.44C571.357 174.333 571.584 173.353 572.037 172.5C572.504 171.647 573.131 170.987 573.917 170.52C574.717 170.04 575.597 169.8 576.557 169.8C577.424 169.8 578.177 169.973 578.817 170.32C579.471 170.653 579.991 171.073 580.377 171.58V169.98H582.677V181H580.377V179.36C579.991 179.88 579.464 180.313 578.797 180.66C578.131 181.007 577.371 181.18 576.517 181.18C575.571 181.18 574.704 180.94 573.917 180.46C573.131 179.967 572.504 179.287 572.037 178.42C571.584 177.54 571.357 176.547 571.357 175.44ZM580.377 175.48C580.377 174.72 580.217 174.06 579.897 173.5C579.591 172.94 579.184 172.513 578.677 172.22C578.171 171.927 577.624 171.78 577.037 171.78C576.451 171.78 575.904 171.927 575.397 172.22C574.891 172.5 574.477 172.92 574.157 173.48C573.851 174.027 573.697 174.68 573.697 175.44C573.697 176.2 573.851 176.867 574.157 177.44C574.477 178.013 574.891 178.453 575.397 178.76C575.917 179.053 576.464 179.2 577.037 179.2C577.624 179.2 578.171 179.053 578.677 178.76C579.184 178.467 579.591 178.04 579.897 177.48C580.217 176.907 580.377 176.24 580.377 175.48ZM584.912 175.48C584.912 174.347 585.139 173.353 585.592 172.5C586.059 171.633 586.699 170.967 587.512 170.5C588.325 170.033 589.259 169.8 590.312 169.8C591.645 169.8 592.745 170.12 593.612 170.76C594.492 171.387 595.085 172.287 595.392 173.46H592.932C592.732 172.913 592.412 172.487 591.972 172.18C591.532 171.873 590.979 171.72 590.312 171.72C589.379 171.72 588.632 172.053 588.072 172.72C587.525 173.373 587.252 174.293 587.252 175.48C587.252 176.667 587.525 177.593 588.072 178.26C588.632 178.927 589.379 179.26 590.312 179.26C591.632 179.26 592.505 178.68 592.932 177.52H595.392C595.072 178.64 594.472 179.533 593.592 180.2C592.712 180.853 591.619 181.18 590.312 181.18C589.259 181.18 588.325 180.947 587.512 180.48C586.699 180 586.059 179.333 585.592 178.48C585.139 177.613 584.912 176.613 584.912 175.48ZM602.024 175.5L607.104 181H604.024L599.944 176.26V181H597.664V166.2H599.944V174.8L603.944 169.98H607.104L602.024 175.5Z" fill="#141718"/>
<path d="M478.84 205.426C478.905 204.567 479.237 203.895 479.834 203.41C480.431 202.925 481.206 202.682 482.158 202.682C482.793 202.682 483.339 202.799 483.796 203.032C484.263 203.256 484.613 203.564 484.846 203.956C485.089 204.348 485.21 204.791 485.21 205.286C485.21 205.865 485.042 206.364 484.706 206.784C484.379 207.204 483.95 207.475 483.418 207.596V207.666C484.025 207.815 484.505 208.109 484.86 208.548C485.215 208.987 485.392 209.561 485.392 210.27C485.392 210.802 485.271 211.283 485.028 211.712C484.785 212.132 484.421 212.463 483.936 212.706C483.451 212.949 482.867 213.07 482.186 213.07C481.197 213.07 480.385 212.813 479.75 212.3C479.115 211.777 478.761 211.04 478.686 210.088H479.918C479.983 210.648 480.212 211.105 480.604 211.46C480.996 211.815 481.519 211.992 482.172 211.992C482.825 211.992 483.32 211.824 483.656 211.488C484.001 211.143 484.174 210.699 484.174 210.158C484.174 209.458 483.941 208.954 483.474 208.646C483.007 208.338 482.303 208.184 481.36 208.184H481.038V207.12H481.374C482.233 207.111 482.881 206.971 483.32 206.7C483.759 206.42 483.978 205.991 483.978 205.412C483.978 204.917 483.815 204.521 483.488 204.222C483.171 203.923 482.713 203.774 482.116 203.774C481.537 203.774 481.071 203.923 480.716 204.222C480.361 204.521 480.151 204.922 480.086 205.426H478.84ZM487.112 207.834C487.112 206.229 487.373 204.978 487.896 204.082C488.419 203.177 489.333 202.724 490.64 202.724C491.937 202.724 492.847 203.177 493.37 204.082C493.893 204.978 494.154 206.229 494.154 207.834C494.154 209.467 493.893 210.737 493.37 211.642C492.847 212.547 491.937 213 490.64 213C489.333 213 488.419 212.547 487.896 211.642C487.373 210.737 487.112 209.467 487.112 207.834ZM492.894 207.834C492.894 207.022 492.838 206.336 492.726 205.776C492.623 205.207 492.404 204.749 492.068 204.404C491.741 204.059 491.265 203.886 490.64 203.886C490.005 203.886 489.52 204.059 489.184 204.404C488.857 204.749 488.638 205.207 488.526 205.776C488.423 206.336 488.372 207.022 488.372 207.834C488.372 208.674 488.423 209.379 488.526 209.948C488.638 210.517 488.857 210.975 489.184 211.32C489.52 211.665 490.005 211.838 490.64 211.838C491.265 211.838 491.741 211.665 492.068 211.32C492.404 210.975 492.623 210.517 492.726 209.948C492.838 209.379 492.894 208.674 492.894 207.834ZM499.37 209.136C499.37 208.352 499.528 207.666 499.846 207.078C500.163 206.481 500.597 206.019 501.148 205.692C501.708 205.365 502.333 205.202 503.024 205.202C503.621 205.202 504.176 205.342 504.69 205.622C505.203 205.893 505.595 206.252 505.866 206.7V202.64H507.154V213H505.866V211.558C505.614 212.015 505.24 212.393 504.746 212.692C504.251 212.981 503.672 213.126 503.01 213.126C502.328 213.126 501.708 212.958 501.148 212.622C500.597 212.286 500.163 211.815 499.846 211.208C499.528 210.601 499.37 209.911 499.37 209.136ZM505.866 209.15C505.866 208.571 505.749 208.067 505.516 207.638C505.282 207.209 504.965 206.882 504.564 206.658C504.172 206.425 503.738 206.308 503.262 206.308C502.786 206.308 502.352 206.42 501.96 206.644C501.568 206.868 501.255 207.195 501.022 207.624C500.788 208.053 500.672 208.557 500.672 209.136C500.672 209.724 500.788 210.237 501.022 210.676C501.255 211.105 501.568 211.437 501.96 211.67C502.352 211.894 502.786 212.006 503.262 212.006C503.738 212.006 504.172 211.894 504.564 211.67C504.965 211.437 505.282 211.105 505.516 210.676C505.749 210.237 505.866 209.729 505.866 209.15ZM508.831 209.136C508.831 208.352 508.989 207.666 509.307 207.078C509.624 206.481 510.058 206.019 510.609 205.692C511.169 205.365 511.789 205.202 512.471 205.202C513.143 205.202 513.726 205.347 514.221 205.636C514.715 205.925 515.084 206.289 515.327 206.728V205.328H516.615V213H515.327V211.572C515.075 212.02 514.697 212.393 514.193 212.692C513.698 212.981 513.119 213.126 512.457 213.126C511.775 213.126 511.159 212.958 510.609 212.622C510.058 212.286 509.624 211.815 509.307 211.208C508.989 210.601 508.831 209.911 508.831 209.136ZM515.327 209.15C515.327 208.571 515.21 208.067 514.977 207.638C514.743 207.209 514.426 206.882 514.025 206.658C513.633 206.425 513.199 206.308 512.723 206.308C512.247 206.308 511.813 206.42 511.421 206.644C511.029 206.868 510.716 207.195 510.483 207.624C510.249 208.053 510.133 208.557 510.133 209.136C510.133 209.724 510.249 210.237 510.483 210.676C510.716 211.105 511.029 211.437 511.421 211.67C511.813 211.894 512.247 212.006 512.723 212.006C513.199 212.006 513.633 211.894 514.025 211.67C514.426 211.437 514.743 211.105 514.977 210.676C515.21 210.237 515.327 209.729 515.327 209.15ZM525.375 205.328L520.755 216.612H519.439L520.951 212.916L517.857 205.328H519.271L521.679 211.544L524.059 205.328H525.375ZM529.372 213.126C528.784 213.126 528.257 213.028 527.79 212.832C527.323 212.627 526.955 212.347 526.684 211.992C526.413 211.628 526.264 211.213 526.236 210.746H527.552C527.589 211.129 527.767 211.441 528.084 211.684C528.411 211.927 528.835 212.048 529.358 212.048C529.843 212.048 530.226 211.941 530.506 211.726C530.786 211.511 530.926 211.241 530.926 210.914C530.926 210.578 530.777 210.331 530.478 210.172C530.179 210.004 529.717 209.841 529.092 209.682C528.523 209.533 528.056 209.383 527.692 209.234C527.337 209.075 527.029 208.847 526.768 208.548C526.516 208.24 526.39 207.839 526.39 207.344C526.39 206.952 526.507 206.593 526.74 206.266C526.973 205.939 527.305 205.683 527.734 205.496C528.163 205.3 528.653 205.202 529.204 205.202C530.053 205.202 530.739 205.417 531.262 205.846C531.785 206.275 532.065 206.863 532.102 207.61H530.828C530.8 207.209 530.637 206.887 530.338 206.644C530.049 206.401 529.657 206.28 529.162 206.28C528.705 206.28 528.341 206.378 528.07 206.574C527.799 206.77 527.664 207.027 527.664 207.344C527.664 207.596 527.743 207.806 527.902 207.974C528.07 208.133 528.275 208.263 528.518 208.366C528.77 208.459 529.115 208.567 529.554 208.688C530.105 208.837 530.553 208.987 530.898 209.136C531.243 209.276 531.537 209.491 531.78 209.78C532.032 210.069 532.163 210.447 532.172 210.914C532.172 211.334 532.055 211.712 531.822 212.048C531.589 212.384 531.257 212.65 530.828 212.846C530.408 213.033 529.923 213.126 529.372 213.126ZM540.867 205.202C541.53 205.202 542.108 205.347 542.603 205.636C543.107 205.925 543.48 206.289 543.723 206.728V205.328H545.011V213.168C545.011 213.868 544.862 214.489 544.563 215.03C544.264 215.581 543.835 216.01 543.275 216.318C542.724 216.626 542.08 216.78 541.343 216.78C540.335 216.78 539.495 216.542 538.823 216.066C538.151 215.59 537.754 214.941 537.633 214.12H538.893C539.033 214.587 539.322 214.96 539.761 215.24C540.2 215.529 540.727 215.674 541.343 215.674C542.043 215.674 542.612 215.455 543.051 215.016C543.499 214.577 543.723 213.961 543.723 213.168V211.558C543.471 212.006 543.098 212.379 542.603 212.678C542.108 212.977 541.53 213.126 540.867 213.126C540.186 213.126 539.565 212.958 539.005 212.622C538.454 212.286 538.02 211.815 537.703 211.208C537.386 210.601 537.227 209.911 537.227 209.136C537.227 208.352 537.386 207.666 537.703 207.078C538.02 206.481 538.454 206.019 539.005 205.692C539.565 205.365 540.186 205.202 540.867 205.202ZM543.723 209.15C543.723 208.571 543.606 208.067 543.373 207.638C543.14 207.209 542.822 206.882 542.421 206.658C542.029 206.425 541.595 206.308 541.119 206.308C540.643 206.308 540.209 206.42 539.817 206.644C539.425 206.868 539.112 207.195 538.879 207.624C538.646 208.053 538.529 208.557 538.529 209.136C538.529 209.724 538.646 210.237 538.879 210.676C539.112 211.105 539.425 211.437 539.817 211.67C540.209 211.894 540.643 212.006 541.119 212.006C541.595 212.006 542.029 211.894 542.421 211.67C542.822 211.437 543.14 211.105 543.373 210.676C543.606 210.237 543.723 209.729 543.723 209.15ZM553.968 205.328V213H552.694V211.866C552.451 212.258 552.111 212.566 551.672 212.79C551.243 213.005 550.767 213.112 550.244 213.112C549.647 213.112 549.11 212.991 548.634 212.748C548.158 212.496 547.78 212.123 547.5 211.628C547.229 211.133 547.094 210.531 547.094 209.822V205.328H548.354V209.654C548.354 210.41 548.545 210.993 548.928 211.404C549.311 211.805 549.833 212.006 550.496 212.006C551.177 212.006 551.714 211.796 552.106 211.376C552.498 210.956 552.694 210.345 552.694 209.542V205.328H553.968ZM555.643 209.136C555.643 208.352 555.802 207.666 556.119 207.078C556.436 206.481 556.87 206.019 557.421 205.692C557.981 205.365 558.602 205.202 559.283 205.202C559.955 205.202 560.538 205.347 561.033 205.636C561.528 205.925 561.896 206.289 562.139 206.728V205.328H563.427V213H562.139V211.572C561.887 212.02 561.509 212.393 561.005 212.692C560.51 212.981 559.932 213.126 559.269 213.126C558.588 213.126 557.972 212.958 557.421 212.622C556.87 212.286 556.436 211.815 556.119 211.208C555.802 210.601 555.643 209.911 555.643 209.136ZM562.139 209.15C562.139 208.571 562.022 208.067 561.789 207.638C561.556 207.209 561.238 206.882 560.837 206.658C560.445 206.425 560.011 206.308 559.535 206.308C559.059 206.308 558.625 206.42 558.233 206.644C557.841 206.868 557.528 207.195 557.295 207.624C557.062 208.053 556.945 208.557 556.945 209.136C556.945 209.724 557.062 210.237 557.295 210.676C557.528 211.105 557.841 211.437 558.233 211.67C558.625 211.894 559.059 212.006 559.535 212.006C560.011 212.006 560.445 211.894 560.837 211.67C561.238 211.437 561.556 211.105 561.789 210.676C562.022 210.237 562.139 209.729 562.139 209.15ZM566.854 206.574C567.078 206.135 567.395 205.795 567.806 205.552C568.226 205.309 568.735 205.188 569.332 205.188V206.504H568.996C567.568 206.504 566.854 207.279 566.854 208.828V213H565.58V205.328H566.854V206.574ZM570.327 209.136C570.327 208.352 570.485 207.666 570.803 207.078C571.12 206.481 571.554 206.019 572.105 205.692C572.665 205.365 573.285 205.202 573.967 205.202C574.639 205.202 575.222 205.347 575.717 205.636C576.211 205.925 576.58 206.289 576.823 206.728V205.328H578.111V213H576.823V211.572C576.571 212.02 576.193 212.393 575.689 212.692C575.194 212.981 574.615 213.126 573.953 213.126C573.271 213.126 572.655 212.958 572.105 212.622C571.554 212.286 571.12 211.815 570.803 211.208C570.485 210.601 570.327 209.911 570.327 209.136ZM576.823 209.15C576.823 208.571 576.706 208.067 576.473 207.638C576.239 207.209 575.922 206.882 575.521 206.658C575.129 206.425 574.695 206.308 574.219 206.308C573.743 206.308 573.309 206.42 572.917 206.644C572.525 206.868 572.212 207.195 571.979 207.624C571.745 208.053 571.629 208.557 571.629 209.136C571.629 209.724 571.745 210.237 571.979 210.676C572.212 211.105 572.525 211.437 572.917 211.67C573.309 211.894 573.743 212.006 574.219 212.006C574.695 212.006 575.129 211.894 575.521 211.67C575.922 211.437 576.239 211.105 576.473 210.676C576.706 210.237 576.823 209.729 576.823 209.15ZM584.002 205.188C584.935 205.188 585.691 205.473 586.27 206.042C586.848 206.602 587.138 207.414 587.138 208.478V213H585.878V208.66C585.878 207.895 585.686 207.311 585.304 206.91C584.921 206.499 584.398 206.294 583.736 206.294C583.064 206.294 582.527 206.504 582.126 206.924C581.734 207.344 581.538 207.955 581.538 208.758V213H580.264V205.328H581.538V206.42C581.79 206.028 582.13 205.725 582.56 205.51C582.998 205.295 583.479 205.188 584.002 205.188ZM590.773 206.378V210.9C590.773 211.273 590.852 211.539 591.011 211.698C591.169 211.847 591.445 211.922 591.837 211.922H592.775V213H591.627C590.917 213 590.385 212.837 590.031 212.51C589.676 212.183 589.499 211.647 589.499 210.9V206.378H588.505V205.328H589.499V203.396H590.773V205.328H592.775V206.378H590.773ZM601.318 208.87C601.318 209.113 601.304 209.369 601.276 209.64H595.144C595.191 210.396 595.448 210.989 595.914 211.418C596.39 211.838 596.964 212.048 597.636 212.048C598.187 212.048 598.644 211.922 599.008 211.67C599.382 211.409 599.643 211.063 599.792 210.634H601.164C600.959 211.371 600.548 211.973 599.932 212.44C599.316 212.897 598.551 213.126 597.636 213.126C596.908 213.126 596.255 212.963 595.676 212.636C595.107 212.309 594.659 211.847 594.332 211.25C594.006 210.643 593.842 209.943 593.842 209.15C593.842 208.357 594.001 207.661 594.318 207.064C594.636 206.467 595.079 206.009 595.648 205.692C596.227 205.365 596.89 205.202 597.636 205.202C598.364 205.202 599.008 205.361 599.568 205.678C600.128 205.995 600.558 206.434 600.856 206.994C601.164 207.545 601.318 208.17 601.318 208.87ZM600.002 208.604C600.002 208.119 599.895 207.703 599.68 207.358C599.466 207.003 599.172 206.737 598.798 206.56C598.434 206.373 598.028 206.28 597.58 206.28C596.936 206.28 596.386 206.485 595.928 206.896C595.48 207.307 595.224 207.876 595.158 208.604H600.002ZM610 208.87C610 209.113 609.986 209.369 609.958 209.64H603.826C603.873 210.396 604.129 210.989 604.596 211.418C605.072 211.838 605.646 212.048 606.318 212.048C606.869 212.048 607.326 211.922 607.69 211.67C608.063 211.409 608.325 211.063 608.474 210.634H609.846C609.641 211.371 609.23 211.973 608.614 212.44C607.998 212.897 607.233 213.126 606.318 213.126C605.59 213.126 604.937 212.963 604.358 212.636C603.789 212.309 603.341 211.847 603.014 211.25C602.687 210.643 602.524 209.943 602.524 209.15C602.524 208.357 602.683 207.661 603 207.064C603.317 206.467 603.761 206.009 604.33 205.692C604.909 205.365 605.571 205.202 606.318 205.202C607.046 205.202 607.69 205.361 608.25 205.678C608.81 205.995 609.239 206.434 609.538 206.994C609.846 207.545 610 208.17 610 208.87ZM608.684 208.604C608.684 208.119 608.577 207.703 608.362 207.358C608.147 207.003 607.853 206.737 607.48 206.56C607.116 206.373 606.71 206.28 606.262 206.28C605.618 206.28 605.067 206.485 604.61 206.896C604.162 207.307 603.905 207.876 603.84 208.604H608.684Z" fill="#6C7275"/>
<rect width="262" height="220" transform="translate(732 48)" fill="#F3F5F7"/>
<path d="M796 112H780M796 112C800.418 112 804 115.582 804 120V132C804 136.418 800.418 140 796 140H780C775.582 140 772 136.418 772 132V120C772 115.582 775.582 112 780 112M796 112V108C796 103.582 792.418 100 788 100C783.582 100 780 103.582 780 108V112M788 128V124" stroke="#141718" stroke-width="2.5" stroke-linecap="round"/>
<path d="M770.08 181.14C769.147 181.14 768.307 180.98 767.56 180.66C766.813 180.327 766.227 179.86 765.8 179.26C765.373 178.66 765.16 177.96 765.16 177.16H767.6C767.653 177.76 767.887 178.253 768.3 178.64C768.727 179.027 769.32 179.22 770.08 179.22C770.867 179.22 771.48 179.033 771.92 178.66C772.36 178.273 772.58 177.78 772.58 177.18C772.58 176.713 772.44 176.333 772.16 176.04C771.893 175.747 771.553 175.52 771.14 175.36C770.74 175.2 770.18 175.027 769.46 174.84C768.553 174.6 767.813 174.36 767.24 174.12C766.68 173.867 766.2 173.48 765.8 172.96C765.4 172.44 765.2 171.747 765.2 170.88C765.2 170.08 765.4 169.38 765.8 168.78C766.2 168.18 766.76 167.72 767.48 167.4C768.2 167.08 769.033 166.92 769.98 166.92C771.327 166.92 772.427 167.26 773.28 167.94C774.147 168.607 774.627 169.527 774.72 170.7H772.2C772.16 170.193 771.92 169.76 771.48 169.4C771.04 169.04 770.46 168.86 769.74 168.86C769.087 168.86 768.553 169.027 768.14 169.36C767.727 169.693 767.52 170.173 767.52 170.8C767.52 171.227 767.647 171.58 767.9 171.86C768.167 172.127 768.5 172.34 768.9 172.5C769.3 172.66 769.847 172.833 770.54 173.02C771.46 173.273 772.207 173.527 772.78 173.78C773.367 174.033 773.86 174.427 774.26 174.96C774.673 175.48 774.88 176.18 774.88 177.06C774.88 177.767 774.687 178.433 774.3 179.06C773.927 179.687 773.373 180.193 772.64 180.58C771.92 180.953 771.067 181.14 770.08 181.14ZM787.67 175.22C787.67 175.633 787.644 176.007 787.59 176.34H779.17C779.237 177.22 779.564 177.927 780.15 178.46C780.737 178.993 781.457 179.26 782.31 179.26C783.537 179.26 784.404 178.747 784.91 177.72H787.37C787.037 178.733 786.43 179.567 785.55 180.22C784.684 180.86 783.604 181.18 782.31 181.18C781.257 181.18 780.31 180.947 779.47 180.48C778.644 180 777.99 179.333 777.51 178.48C777.044 177.613 776.81 176.613 776.81 175.48C776.81 174.347 777.037 173.353 777.49 172.5C777.957 171.633 778.604 170.967 779.43 170.5C780.27 170.033 781.23 169.8 782.31 169.8C783.35 169.8 784.277 170.027 785.09 170.48C785.904 170.933 786.537 171.573 786.99 172.4C787.444 173.213 787.67 174.153 787.67 175.22ZM785.29 174.5C785.277 173.66 784.977 172.987 784.39 172.48C783.804 171.973 783.077 171.72 782.21 171.72C781.424 171.72 780.75 171.973 780.19 172.48C779.63 172.973 779.297 173.647 779.19 174.5H785.29ZM789.154 175.48C789.154 174.347 789.381 173.353 789.834 172.5C790.301 171.633 790.941 170.967 791.754 170.5C792.567 170.033 793.501 169.8 794.554 169.8C795.887 169.8 796.987 170.12 797.854 170.76C798.734 171.387 799.327 172.287 799.634 173.46H797.174C796.974 172.913 796.654 172.487 796.214 172.18C795.774 171.873 795.221 171.72 794.554 171.72C793.621 171.72 792.874 172.053 792.314 172.72C791.767 173.373 791.494 174.293 791.494 175.48C791.494 176.667 791.767 177.593 792.314 178.26C792.874 178.927 793.621 179.26 794.554 179.26C795.874 179.26 796.747 178.68 797.174 177.52H799.634C799.314 178.64 798.714 179.533 797.834 180.2C796.954 180.853 795.861 181.18 794.554 181.18C793.501 181.18 792.567 180.947 791.754 180.48C790.941 180 790.301 179.333 789.834 178.48C789.381 177.613 789.154 176.613 789.154 175.48ZM811.886 169.98V181H809.606V179.7C809.246 180.153 808.773 180.513 808.186 180.78C807.613 181.033 807 181.16 806.346 181.16C805.48 181.16 804.7 180.98 804.006 180.62C803.326 180.26 802.786 179.727 802.386 179.02C802 178.313 801.806 177.46 801.806 176.46V169.98H804.066V176.12C804.066 177.107 804.313 177.867 804.806 178.4C805.3 178.92 805.973 179.18 806.826 179.18C807.68 179.18 808.353 178.92 808.846 178.4C809.353 177.867 809.606 177.107 809.606 176.12V169.98H811.886ZM817.175 171.58C817.508 171.02 817.948 170.587 818.495 170.28C819.055 169.96 819.715 169.8 820.475 169.8V172.16H819.895C819.001 172.16 818.321 172.387 817.855 172.84C817.401 173.293 817.175 174.08 817.175 175.2V181H814.895V169.98H817.175V171.58ZM832.67 175.22C832.67 175.633 832.644 176.007 832.59 176.34H824.17C824.237 177.22 824.564 177.927 825.15 178.46C825.737 178.993 826.457 179.26 827.31 179.26C828.537 179.26 829.404 178.747 829.91 177.72H832.37C832.037 178.733 831.43 179.567 830.55 180.22C829.684 180.86 828.604 181.18 827.31 181.18C826.257 181.18 825.31 180.947 824.47 180.48C823.644 180 822.99 179.333 822.51 178.48C822.044 177.613 821.81 176.613 821.81 175.48C821.81 174.347 822.037 173.353 822.49 172.5C822.957 171.633 823.604 170.967 824.43 170.5C825.27 170.033 826.23 169.8 827.31 169.8C828.35 169.8 829.277 170.027 830.09 170.48C830.904 170.933 831.537 171.573 831.99 172.4C832.444 173.213 832.67 174.153 832.67 175.22ZM830.29 174.5C830.277 173.66 829.977 172.987 829.39 172.48C828.804 171.973 828.077 171.72 827.21 171.72C826.424 171.72 825.75 171.973 825.19 172.48C824.63 172.973 824.297 173.647 824.19 174.5H830.29ZM849.829 171.24C849.829 171.947 849.663 172.613 849.329 173.24C848.996 173.867 848.463 174.38 847.729 174.78C846.996 175.167 846.056 175.36 844.909 175.36H842.389V181H840.109V167.1H844.909C845.976 167.1 846.876 167.287 847.609 167.66C848.356 168.02 848.909 168.513 849.269 169.14C849.643 169.767 849.829 170.467 849.829 171.24ZM844.909 173.5C845.776 173.5 846.423 173.307 846.849 172.92C847.276 172.52 847.489 171.96 847.489 171.24C847.489 169.72 846.629 168.96 844.909 168.96H842.389V173.5H844.909ZM851.244 175.44C851.244 174.333 851.471 173.353 851.924 172.5C852.391 171.647 853.017 170.987 853.804 170.52C854.604 170.04 855.484 169.8 856.444 169.8C857.311 169.8 858.064 169.973 858.704 170.32C859.357 170.653 859.877 171.073 860.264 171.58V169.98H862.564V181H860.264V179.36C859.877 179.88 859.351 180.313 858.684 180.66C858.017 181.007 857.257 181.18 856.404 181.18C855.457 181.18 854.591 180.94 853.804 180.46C853.017 179.967 852.391 179.287 851.924 178.42C851.471 177.54 851.244 176.547 851.244 175.44ZM860.264 175.48C860.264 174.72 860.104 174.06 859.784 173.5C859.477 172.94 859.071 172.513 858.564 172.22C858.057 171.927 857.511 171.78 856.924 171.78C856.337 171.78 855.791 171.927 855.284 172.22C854.777 172.5 854.364 172.92 854.044 173.48C853.737 174.027 853.584 174.68 853.584 175.44C853.584 176.2 853.737 176.867 854.044 177.44C854.364 178.013 854.777 178.453 855.284 178.76C855.804 179.053 856.351 179.2 856.924 179.2C857.511 179.2 858.057 179.053 858.564 178.76C859.071 178.467 859.477 178.04 859.784 177.48C860.104 176.907 860.264 176.24 860.264 175.48ZM875.479 169.98L868.719 186.18H866.359L868.599 180.82L864.259 169.98H866.799L869.899 178.38L873.119 169.98H875.479ZM890.539 169.8C891.406 169.8 892.179 169.98 892.859 170.34C893.553 170.7 894.093 171.233 894.479 171.94C894.879 172.647 895.079 173.5 895.079 174.5V181H892.819V174.84C892.819 173.853 892.573 173.1 892.079 172.58C891.586 172.047 890.913 171.78 890.059 171.78C889.206 171.78 888.526 172.047 888.019 172.58C887.526 173.1 887.279 173.853 887.279 174.84V181H885.019V174.84C885.019 173.853 884.773 173.1 884.279 172.58C883.786 172.047 883.113 171.78 882.259 171.78C881.406 171.78 880.726 172.047 880.219 172.58C879.726 173.1 879.479 173.853 879.479 174.84V181H877.199V169.98H879.479V171.24C879.853 170.787 880.326 170.433 880.899 170.18C881.473 169.927 882.086 169.8 882.739 169.8C883.619 169.8 884.406 169.987 885.099 170.36C885.793 170.733 886.326 171.273 886.699 171.98C887.033 171.313 887.553 170.787 888.259 170.4C888.966 170 889.726 169.8 890.539 169.8ZM908.08 175.22C908.08 175.633 908.054 176.007 908 176.34H899.58C899.647 177.22 899.974 177.927 900.56 178.46C901.147 178.993 901.867 179.26 902.72 179.26C903.947 179.26 904.814 178.747 905.32 177.72H907.78C907.447 178.733 906.84 179.567 905.96 180.22C905.094 180.86 904.014 181.18 902.72 181.18C901.667 181.18 900.72 180.947 899.88 180.48C899.054 180 898.4 179.333 897.92 178.48C897.454 177.613 897.22 176.613 897.22 175.48C897.22 174.347 897.447 173.353 897.9 172.5C898.367 171.633 899.014 170.967 899.84 170.5C900.68 170.033 901.64 169.8 902.72 169.8C903.76 169.8 904.687 170.027 905.5 170.48C906.314 170.933 906.947 171.573 907.4 172.4C907.854 173.213 908.08 174.153 908.08 175.22ZM905.7 174.5C905.687 173.66 905.387 172.987 904.8 172.48C904.214 171.973 903.487 171.72 902.62 171.72C901.834 171.72 901.16 171.973 900.6 172.48C900.04 172.973 899.707 173.647 899.6 174.5H905.7ZM915.884 169.8C916.751 169.8 917.524 169.98 918.204 170.34C918.898 170.7 919.438 171.233 919.824 171.94C920.211 172.647 920.404 173.5 920.404 174.5V181H918.144V174.84C918.144 173.853 917.898 173.1 917.404 172.58C916.911 172.047 916.238 171.78 915.384 171.78C914.531 171.78 913.851 172.047 913.344 172.58C912.851 173.1 912.604 173.853 912.604 174.84V181H910.324V169.98H912.604V171.24C912.978 170.787 913.451 170.433 914.024 170.18C914.611 169.927 915.231 169.8 915.884 169.8ZM925.973 171.84V177.94C925.973 178.353 926.066 178.653 926.253 178.84C926.453 179.013 926.786 179.1 927.253 179.1H928.653V181H926.853C925.826 181 925.039 180.76 924.493 180.28C923.946 179.8 923.673 179.02 923.673 177.94V171.84H922.373V169.98H923.673V167.24H925.973V169.98H928.653V171.84H925.973ZM934.754 181.18C933.887 181.18 933.107 181.027 932.414 180.72C931.734 180.4 931.194 179.973 930.794 179.44C930.394 178.893 930.181 178.287 930.154 177.62H932.514C932.554 178.087 932.774 178.48 933.174 178.8C933.587 179.107 934.101 179.26 934.714 179.26C935.354 179.26 935.847 179.14 936.194 178.9C936.554 178.647 936.734 178.327 936.734 177.94C936.734 177.527 936.534 177.22 936.134 177.02C935.747 176.82 935.127 176.6 934.274 176.36C933.447 176.133 932.774 175.913 932.254 175.7C931.734 175.487 931.281 175.16 930.894 174.72C930.521 174.28 930.334 173.7 930.334 172.98C930.334 172.393 930.507 171.86 930.854 171.38C931.201 170.887 931.694 170.5 932.334 170.22C932.987 169.94 933.734 169.8 934.574 169.8C935.827 169.8 936.834 170.12 937.594 170.76C938.367 171.387 938.781 172.247 938.834 173.34H936.554C936.514 172.847 936.314 172.453 935.954 172.16C935.594 171.867 935.107 171.72 934.494 171.72C933.894 171.72 933.434 171.833 933.114 172.06C932.794 172.287 932.634 172.587 932.634 172.96C932.634 173.253 932.741 173.5 932.954 173.7C933.167 173.9 933.427 174.06 933.734 174.18C934.041 174.287 934.494 174.427 935.094 174.6C935.894 174.813 936.547 175.033 937.054 175.26C937.574 175.473 938.021 175.793 938.394 176.22C938.767 176.647 938.961 177.213 938.974 177.92C938.974 178.547 938.801 179.107 938.454 179.6C938.107 180.093 937.614 180.48 936.974 180.76C936.347 181.04 935.607 181.18 934.754 181.18Z" fill="#141718"/>
<path d="M768.172 213.098C767.528 213.098 766.949 212.986 766.436 212.762C765.932 212.529 765.535 212.211 765.246 211.81C764.957 211.399 764.807 210.928 764.798 210.396H766.156C766.203 210.853 766.389 211.241 766.716 211.558C767.052 211.866 767.537 212.02 768.172 212.02C768.779 212.02 769.255 211.871 769.6 211.572C769.955 211.264 770.132 210.872 770.132 210.396C770.132 210.023 770.029 209.719 769.824 209.486C769.619 209.253 769.362 209.075 769.054 208.954C768.746 208.833 768.331 208.702 767.808 208.562C767.164 208.394 766.646 208.226 766.254 208.058C765.871 207.89 765.54 207.629 765.26 207.274C764.989 206.91 764.854 206.425 764.854 205.818C764.854 205.286 764.989 204.815 765.26 204.404C765.531 203.993 765.909 203.676 766.394 203.452C766.889 203.228 767.453 203.116 768.088 203.116C769.003 203.116 769.749 203.345 770.328 203.802C770.916 204.259 771.247 204.866 771.322 205.622H769.922C769.875 205.249 769.679 204.922 769.334 204.642C768.989 204.353 768.531 204.208 767.962 204.208C767.43 204.208 766.996 204.348 766.66 204.628C766.324 204.899 766.156 205.281 766.156 205.776C766.156 206.131 766.254 206.42 766.45 206.644C766.655 206.868 766.903 207.041 767.192 207.162C767.491 207.274 767.906 207.405 768.438 207.554C769.082 207.731 769.6 207.909 769.992 208.086C770.384 208.254 770.72 208.52 771 208.884C771.28 209.239 771.42 209.724 771.42 210.34C771.42 210.816 771.294 211.264 771.042 211.684C770.79 212.104 770.417 212.445 769.922 212.706C769.427 212.967 768.844 213.098 768.172 213.098ZM780.295 208.87C780.295 209.113 780.281 209.369 780.253 209.64H774.121C774.167 210.396 774.424 210.989 774.891 211.418C775.367 211.838 775.941 212.048 776.613 212.048C777.163 212.048 777.621 211.922 777.985 211.67C778.358 211.409 778.619 211.063 778.769 210.634H780.141C779.935 211.371 779.525 211.973 778.909 212.44C778.293 212.897 777.527 213.126 776.613 213.126C775.885 213.126 775.231 212.963 774.653 212.636C774.083 212.309 773.635 211.847 773.309 211.25C772.982 210.643 772.819 209.943 772.819 209.15C772.819 208.357 772.977 207.661 773.295 207.064C773.612 206.467 774.055 206.009 774.625 205.692C775.203 205.365 775.866 205.202 776.613 205.202C777.341 205.202 777.985 205.361 778.545 205.678C779.105 205.995 779.534 206.434 779.833 206.994C780.141 207.545 780.295 208.17 780.295 208.87ZM778.979 208.604C778.979 208.119 778.871 207.703 778.657 207.358C778.442 207.003 778.148 206.737 777.775 206.56C777.411 206.373 777.005 206.28 776.557 206.28C775.913 206.28 775.362 206.485 774.905 206.896C774.457 207.307 774.2 207.876 774.135 208.604H778.979ZM781.5 209.15C781.5 208.357 781.659 207.666 781.976 207.078C782.294 206.481 782.732 206.019 783.292 205.692C783.862 205.365 784.51 205.202 785.238 205.202C786.181 205.202 786.956 205.431 787.562 205.888C788.178 206.345 788.584 206.98 788.78 207.792H787.408C787.278 207.325 787.021 206.957 786.638 206.686C786.265 206.415 785.798 206.28 785.238 206.28C784.51 206.28 783.922 206.532 783.474 207.036C783.026 207.531 782.802 208.235 782.802 209.15C782.802 210.074 783.026 210.788 783.474 211.292C783.922 211.796 784.51 212.048 785.238 212.048C785.798 212.048 786.265 211.917 786.638 211.656C787.012 211.395 787.268 211.021 787.408 210.536H788.78C788.575 211.32 788.164 211.95 787.548 212.426C786.932 212.893 786.162 213.126 785.238 213.126C784.51 213.126 783.862 212.963 783.292 212.636C782.732 212.309 782.294 211.847 781.976 211.25C781.659 210.653 781.5 209.953 781.5 209.15ZM797.284 205.328V213H796.01V211.866C795.768 212.258 795.427 212.566 794.988 212.79C794.559 213.005 794.083 213.112 793.56 213.112C792.963 213.112 792.426 212.991 791.95 212.748C791.474 212.496 791.096 212.123 790.816 211.628C790.546 211.133 790.41 210.531 790.41 209.822V205.328H791.67V209.654C791.67 210.41 791.862 210.993 792.244 211.404C792.627 211.805 793.15 212.006 793.812 212.006C794.494 212.006 795.03 211.796 795.422 211.376C795.814 210.956 796.01 210.345 796.01 209.542V205.328H797.284ZM800.709 206.574C800.933 206.135 801.251 205.795 801.661 205.552C802.081 205.309 802.59 205.188 803.187 205.188V206.504H802.851C801.423 206.504 800.709 207.279 800.709 208.828V213H799.435V205.328H800.709V206.574ZM811.658 208.87C811.658 209.113 811.644 209.369 811.616 209.64H805.484C805.531 210.396 805.787 210.989 806.254 211.418C806.73 211.838 807.304 212.048 807.976 212.048C808.527 212.048 808.984 211.922 809.348 211.67C809.721 211.409 809.983 211.063 810.132 210.634H811.504C811.299 211.371 810.888 211.973 810.272 212.44C809.656 212.897 808.891 213.126 807.976 213.126C807.248 213.126 806.595 212.963 806.016 212.636C805.447 212.309 804.999 211.847 804.672 211.25C804.345 210.643 804.182 209.943 804.182 209.15C804.182 208.357 804.341 207.661 804.658 207.064C804.975 206.467 805.419 206.009 805.988 205.692C806.567 205.365 807.229 205.202 807.976 205.202C808.704 205.202 809.348 205.361 809.908 205.678C810.468 205.995 810.897 206.434 811.196 206.994C811.504 207.545 811.658 208.17 811.658 208.87ZM810.342 208.604C810.342 208.119 810.235 207.703 810.02 207.358C809.805 207.003 809.511 206.737 809.138 206.56C808.774 206.373 808.368 206.28 807.92 206.28C807.276 206.28 806.725 206.485 806.268 206.896C805.82 207.307 805.563 207.876 805.498 208.604H810.342ZM812.864 209.136C812.864 208.352 813.022 207.666 813.34 207.078C813.657 206.481 814.091 206.019 814.642 205.692C815.202 205.365 815.827 205.202 816.518 205.202C817.115 205.202 817.67 205.342 818.184 205.622C818.697 205.893 819.089 206.252 819.36 206.7V202.64H820.648V213H819.36V211.558C819.108 212.015 818.734 212.393 818.24 212.692C817.745 212.981 817.166 213.126 816.504 213.126C815.822 213.126 815.202 212.958 814.642 212.622C814.091 212.286 813.657 211.815 813.34 211.208C813.022 210.601 812.864 209.911 812.864 209.136ZM819.36 209.15C819.36 208.571 819.243 208.067 819.01 207.638C818.776 207.209 818.459 206.882 818.058 206.658C817.666 206.425 817.232 206.308 816.756 206.308C816.28 206.308 815.846 206.42 815.454 206.644C815.062 206.868 814.749 207.195 814.516 207.624C814.282 208.053 814.166 208.557 814.166 209.136C814.166 209.724 814.282 210.237 814.516 210.676C814.749 211.105 815.062 211.437 815.454 211.67C815.846 211.894 816.28 212.006 816.756 212.006C817.232 212.006 817.666 211.894 818.058 211.67C818.459 211.437 818.776 211.105 819.01 210.676C819.243 210.237 819.36 209.729 819.36 209.15ZM827.807 206.756C828.068 206.299 828.451 205.925 828.955 205.636C829.459 205.347 830.033 205.202 830.677 205.202C831.368 205.202 831.988 205.365 832.539 205.692C833.09 206.019 833.524 206.481 833.841 207.078C834.158 207.666 834.317 208.352 834.317 209.136C834.317 209.911 834.158 210.601 833.841 211.208C833.524 211.815 833.085 212.286 832.525 212.622C831.974 212.958 831.358 213.126 830.677 213.126C830.014 213.126 829.431 212.981 828.927 212.692C828.432 212.403 828.059 212.034 827.807 211.586V213H826.533V202.64H827.807V206.756ZM833.015 209.136C833.015 208.557 832.898 208.053 832.665 207.624C832.432 207.195 832.114 206.868 831.713 206.644C831.321 206.42 830.887 206.308 830.411 206.308C829.944 206.308 829.51 206.425 829.109 206.658C828.717 206.882 828.4 207.213 828.157 207.652C827.924 208.081 827.807 208.581 827.807 209.15C827.807 209.729 827.924 210.237 828.157 210.676C828.4 211.105 828.717 211.437 829.109 211.67C829.51 211.894 829.944 212.006 830.411 212.006C830.887 212.006 831.321 211.894 831.713 211.67C832.114 211.437 832.432 211.105 832.665 210.676C832.898 210.237 833.015 209.724 833.015 209.136ZM842.602 205.328L837.982 216.612H836.666L838.178 212.916L835.084 205.328H836.498L838.906 211.544L841.286 205.328H842.602ZM850.709 213.098C850.065 213.098 849.486 212.986 848.973 212.762C848.469 212.529 848.072 212.211 847.783 211.81C847.494 211.399 847.344 210.928 847.335 210.396H848.693C848.74 210.853 848.926 211.241 849.253 211.558C849.589 211.866 850.074 212.02 850.709 212.02C851.316 212.02 851.792 211.871 852.137 211.572C852.492 211.264 852.669 210.872 852.669 210.396C852.669 210.023 852.566 209.719 852.361 209.486C852.156 209.253 851.899 209.075 851.591 208.954C851.283 208.833 850.868 208.702 850.345 208.562C849.701 208.394 849.183 208.226 848.791 208.058C848.408 207.89 848.077 207.629 847.797 207.274C847.526 206.91 847.391 206.425 847.391 205.818C847.391 205.286 847.526 204.815 847.797 204.404C848.068 203.993 848.446 203.676 848.931 203.452C849.426 203.228 849.99 203.116 850.625 203.116C851.54 203.116 852.286 203.345 852.865 203.802C853.453 204.259 853.784 204.866 853.859 205.622H852.459C852.412 205.249 852.216 204.922 851.871 204.642C851.526 204.353 851.068 204.208 850.499 204.208C849.967 204.208 849.533 204.348 849.197 204.628C848.861 204.899 848.693 205.281 848.693 205.776C848.693 206.131 848.791 206.42 848.987 206.644C849.192 206.868 849.44 207.041 849.729 207.162C850.028 207.274 850.443 207.405 850.975 207.554C851.619 207.731 852.137 207.909 852.529 208.086C852.921 208.254 853.257 208.52 853.537 208.884C853.817 209.239 853.957 209.724 853.957 210.34C853.957 210.816 853.831 211.264 853.579 211.684C853.327 212.104 852.954 212.445 852.459 212.706C851.964 212.967 851.381 213.098 850.709 213.098ZM857.386 206.378V210.9C857.386 211.273 857.465 211.539 857.624 211.698C857.783 211.847 858.058 211.922 858.45 211.922H859.388V213H858.24C857.531 213 856.999 212.837 856.644 212.51C856.289 212.183 856.112 211.647 856.112 210.9V206.378H855.118V205.328H856.112V203.396H857.386V205.328H859.388V206.378H857.386ZM862.206 206.574C862.43 206.135 862.747 205.795 863.158 205.552C863.578 205.309 864.086 205.188 864.684 205.188V206.504H864.348C862.92 206.504 862.206 207.279 862.206 208.828V213H860.932V205.328H862.206V206.574ZM866.812 204.082C866.57 204.082 866.364 203.998 866.196 203.83C866.028 203.662 865.944 203.457 865.944 203.214C865.944 202.971 866.028 202.766 866.196 202.598C866.364 202.43 866.57 202.346 866.812 202.346C867.046 202.346 867.242 202.43 867.4 202.598C867.568 202.766 867.652 202.971 867.652 203.214C867.652 203.457 867.568 203.662 867.4 203.83C867.242 203.998 867.046 204.082 866.812 204.082ZM867.428 205.328V213H866.154V205.328H867.428ZM870.873 206.742C871.125 206.303 871.499 205.939 871.993 205.65C872.497 205.351 873.081 205.202 873.743 205.202C874.425 205.202 875.041 205.365 875.591 205.692C876.151 206.019 876.59 206.481 876.907 207.078C877.225 207.666 877.383 208.352 877.383 209.136C877.383 209.911 877.225 210.601 876.907 211.208C876.59 211.815 876.151 212.286 875.591 212.622C875.041 212.958 874.425 213.126 873.743 213.126C873.09 213.126 872.511 212.981 872.007 212.692C871.513 212.393 871.135 212.025 870.873 211.586V216.64H869.599V205.328H870.873V206.742ZM876.081 209.136C876.081 208.557 875.965 208.053 875.731 207.624C875.498 207.195 875.181 206.868 874.779 206.644C874.387 206.42 873.953 206.308 873.477 206.308C873.011 206.308 872.577 206.425 872.175 206.658C871.783 206.882 871.466 207.213 871.223 207.652C870.99 208.081 870.873 208.581 870.873 209.15C870.873 209.729 870.99 210.237 871.223 210.676C871.466 211.105 871.783 211.437 872.175 211.67C872.577 211.894 873.011 212.006 873.477 212.006C873.953 212.006 874.387 211.894 874.779 211.67C875.181 211.437 875.498 211.105 875.731 210.676C875.965 210.237 876.081 209.724 876.081 209.136ZM886.06 208.87C886.06 209.113 886.046 209.369 886.018 209.64H879.886C879.933 210.396 880.19 210.989 880.656 211.418C881.132 211.838 881.706 212.048 882.378 212.048C882.929 212.048 883.386 211.922 883.75 211.67C884.124 211.409 884.385 211.063 884.534 210.634H885.906C885.701 211.371 885.29 211.973 884.674 212.44C884.058 212.897 883.293 213.126 882.378 213.126C881.65 213.126 880.997 212.963 880.418 212.636C879.849 212.309 879.401 211.847 879.074 211.25C878.748 210.643 878.584 209.943 878.584 209.15C878.584 208.357 878.743 207.661 879.06 207.064C879.378 206.467 879.821 206.009 880.39 205.692C880.969 205.365 881.632 205.202 882.378 205.202C883.106 205.202 883.75 205.361 884.31 205.678C884.87 205.995 885.3 206.434 885.598 206.994C885.906 207.545 886.06 208.17 886.06 208.87ZM884.744 208.604C884.744 208.119 884.637 207.703 884.422 207.358C884.208 207.003 883.914 206.737 883.54 206.56C883.176 206.373 882.77 206.28 882.322 206.28C881.678 206.28 881.128 206.485 880.67 206.896C880.222 207.307 879.966 207.876 879.9 208.604H884.744Z" fill="#6C7275"/>
<rect width="262" height="220" transform="translate(1018 48)" fill="#F3F5F7"/>
<path d="M1092 134V130.708C1092 129.073 1091 127.602 1089.49 126.994L1085.42 125.367C1083.49 124.594 1081.28 125.431 1080.35 127.292L1080 128C1080 128 1075 127 1071 123C1067 119 1066 114 1066 114L1066.71 113.646C1068.57 112.716 1069.41 110.514 1068.63 108.583L1067.01 104.514C1066.4 102.996 1064.93 102 1063.29 102H1060C1057.79 102 1056 103.791 1056 106C1056 123.673 1070.33 138 1088 138C1090.21 138 1092 136.209 1092 134Z" stroke="#141718" stroke-width="2.5" stroke-linejoin="round"/>
<path d="M1052.46 177.9C1053.74 176.793 1054.75 175.887 1055.48 175.18C1056.23 174.46 1056.85 173.713 1057.34 172.94C1057.83 172.167 1058.08 171.393 1058.08 170.62C1058.08 169.82 1057.89 169.193 1057.5 168.74C1057.13 168.287 1056.53 168.06 1055.72 168.06C1054.93 168.06 1054.32 168.313 1053.88 168.82C1053.45 169.313 1053.23 169.98 1053.2 170.82H1051C1051.04 169.3 1051.49 168.14 1052.36 167.34C1053.24 166.527 1054.35 166.12 1055.7 166.12C1057.15 166.12 1058.29 166.52 1059.1 167.32C1059.93 168.12 1060.34 169.187 1060.34 170.52C1060.34 171.48 1060.09 172.407 1059.6 173.3C1059.12 174.18 1058.54 174.973 1057.86 175.68C1057.19 176.373 1056.34 177.18 1055.3 178.1L1054.4 178.9H1060.74V180.8H1051.02V179.14L1052.46 177.9ZM1062.46 177.96V176.24L1069.18 166.6H1071.94V175.98H1073.8V177.96H1071.94V181H1069.7V177.96H1062.46ZM1069.8 168.92L1065.08 175.98H1069.8V168.92ZM1083.39 162.12L1077.95 184.5H1075.71L1081.13 162.12H1083.39ZM1095.21 168.18L1089.65 181H1087.35L1092.97 168.42H1085.57V166.48H1095.21V168.18ZM1107.23 181.14C1106.3 181.14 1105.46 180.98 1104.71 180.66C1103.97 180.327 1103.38 179.86 1102.95 179.26C1102.53 178.66 1102.31 177.96 1102.31 177.16H1104.75C1104.81 177.76 1105.04 178.253 1105.45 178.64C1105.88 179.027 1106.47 179.22 1107.23 179.22C1108.02 179.22 1108.63 179.033 1109.07 178.66C1109.51 178.273 1109.73 177.78 1109.73 177.18C1109.73 176.713 1109.59 176.333 1109.31 176.04C1109.05 175.747 1108.71 175.52 1108.29 175.36C1107.89 175.2 1107.33 175.027 1106.61 174.84C1105.71 174.6 1104.97 174.36 1104.39 174.12C1103.83 173.867 1103.35 173.48 1102.95 172.96C1102.55 172.44 1102.35 171.747 1102.35 170.88C1102.35 170.08 1102.55 169.38 1102.95 168.78C1103.35 168.18 1103.91 167.72 1104.63 167.4C1105.35 167.08 1106.19 166.92 1107.13 166.92C1108.48 166.92 1109.58 167.26 1110.43 167.94C1111.3 168.607 1111.78 169.527 1111.87 170.7H1109.35C1109.31 170.193 1109.07 169.76 1108.63 169.4C1108.19 169.04 1107.61 168.86 1106.89 168.86C1106.24 168.86 1105.71 169.027 1105.29 169.36C1104.88 169.693 1104.67 170.173 1104.67 170.8C1104.67 171.227 1104.8 171.58 1105.05 171.86C1105.32 172.127 1105.65 172.34 1106.05 172.5C1106.45 172.66 1107 172.833 1107.69 173.02C1108.61 173.273 1109.36 173.527 1109.93 173.78C1110.52 174.033 1111.01 174.427 1111.41 174.96C1111.83 175.48 1112.03 176.18 1112.03 177.06C1112.03 177.767 1111.84 178.433 1111.45 179.06C1111.08 179.687 1110.53 180.193 1109.79 180.58C1109.07 180.953 1108.22 181.14 1107.23 181.14ZM1124.7 169.98V181H1122.42V179.7C1122.06 180.153 1121.59 180.513 1121 180.78C1120.43 181.033 1119.82 181.16 1119.16 181.16C1118.3 181.16 1117.52 180.98 1116.82 180.62C1116.14 180.26 1115.6 179.727 1115.2 179.02C1114.82 178.313 1114.62 177.46 1114.62 176.46V169.98H1116.88V176.12C1116.88 177.107 1117.13 177.867 1117.62 178.4C1118.12 178.92 1118.79 179.18 1119.64 179.18C1120.5 179.18 1121.17 178.92 1121.66 178.4C1122.17 177.867 1122.42 177.107 1122.42 176.12V169.98H1124.7ZM1129.99 171.6C1130.38 171.093 1130.9 170.667 1131.57 170.32C1132.24 169.973 1132.99 169.8 1133.83 169.8C1134.79 169.8 1135.66 170.04 1136.45 170.52C1137.25 170.987 1137.88 171.647 1138.33 172.5C1138.78 173.353 1139.01 174.333 1139.01 175.44C1139.01 176.547 1138.78 177.54 1138.33 178.42C1137.88 179.287 1137.25 179.967 1136.45 180.46C1135.66 180.94 1134.79 181.18 1133.83 181.18C1132.99 181.18 1132.24 181.013 1131.59 180.68C1130.94 180.333 1130.4 179.907 1129.99 179.4V186.24H1127.71V169.98H1129.99V171.6ZM1136.69 175.44C1136.69 174.68 1136.53 174.027 1136.21 173.48C1135.9 172.92 1135.49 172.5 1134.97 172.22C1134.46 171.927 1133.92 171.78 1133.33 171.78C1132.76 171.78 1132.21 171.927 1131.69 172.22C1131.18 172.513 1130.77 172.94 1130.45 173.5C1130.14 174.06 1129.99 174.72 1129.99 175.48C1129.99 176.24 1130.14 176.907 1130.45 177.48C1130.77 178.04 1131.18 178.467 1131.69 178.76C1132.21 179.053 1132.76 179.2 1133.33 179.2C1133.92 179.2 1134.46 179.053 1134.97 178.76C1135.49 178.453 1135.9 178.013 1136.21 177.44C1136.53 176.867 1136.69 176.2 1136.69 175.44ZM1143.55 171.6C1143.93 171.093 1144.46 170.667 1145.13 170.32C1145.79 169.973 1146.55 169.8 1147.39 169.8C1148.35 169.8 1149.22 170.04 1150.01 170.52C1150.81 170.987 1151.43 171.647 1151.89 172.5C1152.34 173.353 1152.57 174.333 1152.57 175.44C1152.57 176.547 1152.34 177.54 1151.89 178.42C1151.43 179.287 1150.81 179.967 1150.01 180.46C1149.22 180.94 1148.35 181.18 1147.39 181.18C1146.55 181.18 1145.8 181.013 1145.15 180.68C1144.49 180.333 1143.96 179.907 1143.55 179.4V186.24H1141.27V169.98H1143.55V171.6ZM1150.25 175.44C1150.25 174.68 1150.09 174.027 1149.77 173.48C1149.46 172.92 1149.05 172.5 1148.53 172.22C1148.02 171.927 1147.47 171.78 1146.89 171.78C1146.31 171.78 1145.77 171.927 1145.25 172.22C1144.74 172.513 1144.33 172.94 1144.01 173.5C1143.7 174.06 1143.55 174.72 1143.55 175.48C1143.55 176.24 1143.7 176.907 1144.01 177.48C1144.33 178.04 1144.74 178.467 1145.25 178.76C1145.77 179.053 1146.31 179.2 1146.89 179.2C1147.47 179.2 1148.02 179.053 1148.53 178.76C1149.05 178.453 1149.46 178.013 1149.77 177.44C1150.09 176.867 1150.25 176.2 1150.25 175.44ZM1159.6 181.18C1158.56 181.18 1157.62 180.947 1156.78 180.48C1155.94 180 1155.28 179.333 1154.8 178.48C1154.32 177.613 1154.08 176.613 1154.08 175.48C1154.08 174.36 1154.33 173.367 1154.82 172.5C1155.31 171.633 1155.99 170.967 1156.84 170.5C1157.69 170.033 1158.65 169.8 1159.7 169.8C1160.75 169.8 1161.71 170.033 1162.56 170.5C1163.41 170.967 1164.09 171.633 1164.58 172.5C1165.07 173.367 1165.32 174.36 1165.32 175.48C1165.32 176.6 1165.07 177.593 1164.56 178.46C1164.05 179.327 1163.36 180 1162.48 180.48C1161.61 180.947 1160.65 181.18 1159.6 181.18ZM1159.6 179.2C1160.19 179.2 1160.73 179.06 1161.24 178.78C1161.76 178.5 1162.18 178.08 1162.5 177.52C1162.82 176.96 1162.98 176.28 1162.98 175.48C1162.98 174.68 1162.83 174.007 1162.52 173.46C1162.21 172.9 1161.81 172.48 1161.3 172.2C1160.79 171.92 1160.25 171.78 1159.66 171.78C1159.07 171.78 1158.53 171.92 1158.02 172.2C1157.53 172.48 1157.13 172.9 1156.84 173.46C1156.55 174.007 1156.4 174.68 1156.4 175.48C1156.4 176.667 1156.7 177.587 1157.3 178.24C1157.91 178.88 1158.68 179.2 1159.6 179.2ZM1169.85 171.58C1170.19 171.02 1170.63 170.587 1171.17 170.28C1171.73 169.96 1172.39 169.8 1173.15 169.8V172.16H1172.57C1171.68 172.16 1171 172.387 1170.53 172.84C1170.08 173.293 1169.85 174.08 1169.85 175.2V181H1167.57V169.98H1169.85V171.58ZM1177.91 171.84V177.94C1177.91 178.353 1178 178.653 1178.19 178.84C1178.39 179.013 1178.72 179.1 1179.19 179.1H1180.59V181H1178.79C1177.76 181 1176.98 180.76 1176.43 180.28C1175.88 179.8 1175.61 179.02 1175.61 177.94V171.84H1174.31V169.98H1175.61V167.24H1177.91V169.98H1180.59V171.84H1177.91Z" fill="#141718"/>
<path d="M1057.6 206.098C1057.6 206.91 1057.32 207.587 1056.76 208.128C1056.21 208.66 1055.37 208.926 1054.23 208.926H1052.35V213H1051.08V203.242H1054.23C1055.33 203.242 1056.16 203.508 1056.73 204.04C1057.31 204.572 1057.6 205.258 1057.6 206.098ZM1054.23 207.876C1054.94 207.876 1055.46 207.722 1055.8 207.414C1056.13 207.106 1056.3 206.667 1056.3 206.098C1056.3 204.894 1055.61 204.292 1054.23 204.292H1052.35V207.876H1054.23ZM1062.99 205.188C1063.57 205.188 1064.09 205.314 1064.56 205.566C1065.03 205.809 1065.39 206.177 1065.65 206.672C1065.92 207.167 1066.06 207.769 1066.06 208.478V213H1064.8V208.66C1064.8 207.895 1064.61 207.311 1064.23 206.91C1063.84 206.499 1063.32 206.294 1062.66 206.294C1061.99 206.294 1061.45 206.504 1061.05 206.924C1060.66 207.344 1060.46 207.955 1060.46 208.758V213H1059.19V202.64H1060.46V206.42C1060.71 206.028 1061.06 205.725 1061.5 205.51C1061.94 205.295 1062.44 205.188 1062.99 205.188ZM1071.49 213.126C1070.77 213.126 1070.11 212.963 1069.53 212.636C1068.95 212.309 1068.49 211.847 1068.15 211.25C1067.83 210.643 1067.66 209.943 1067.66 209.15C1067.66 208.366 1067.83 207.675 1068.17 207.078C1068.51 206.471 1068.98 206.009 1069.57 205.692C1070.16 205.365 1070.81 205.202 1071.54 205.202C1072.27 205.202 1072.93 205.365 1073.52 205.692C1074.1 206.009 1074.57 206.467 1074.9 207.064C1075.25 207.661 1075.42 208.357 1075.42 209.15C1075.42 209.943 1075.24 210.643 1074.89 211.25C1074.54 211.847 1074.07 212.309 1073.47 212.636C1072.88 212.963 1072.21 213.126 1071.49 213.126ZM1071.49 212.006C1071.94 212.006 1072.37 211.899 1072.77 211.684C1073.18 211.469 1073.5 211.147 1073.74 210.718C1073.99 210.289 1074.12 209.766 1074.12 209.15C1074.12 208.534 1074 208.011 1073.75 207.582C1073.51 207.153 1073.19 206.835 1072.8 206.63C1072.41 206.415 1071.99 206.308 1071.53 206.308C1071.06 206.308 1070.63 206.415 1070.24 206.63C1069.86 206.835 1069.55 207.153 1069.32 207.582C1069.08 208.011 1068.97 208.534 1068.97 209.15C1068.97 209.775 1069.08 210.303 1069.3 210.732C1069.54 211.161 1069.84 211.483 1070.23 211.698C1070.61 211.903 1071.03 212.006 1071.49 212.006ZM1080.83 205.188C1081.77 205.188 1082.52 205.473 1083.1 206.042C1083.68 206.602 1083.97 207.414 1083.97 208.478V213H1082.71V208.66C1082.71 207.895 1082.52 207.311 1082.14 206.91C1081.75 206.499 1081.23 206.294 1080.57 206.294C1079.9 206.294 1079.36 206.504 1078.96 206.924C1078.57 207.344 1078.37 207.955 1078.37 208.758V213H1077.1V205.328H1078.37V206.42C1078.62 206.028 1078.96 205.725 1079.39 205.51C1079.83 205.295 1080.31 205.188 1080.83 205.188ZM1093.05 208.87C1093.05 209.113 1093.04 209.369 1093.01 209.64H1086.88C1086.92 210.396 1087.18 210.989 1087.65 211.418C1088.12 211.838 1088.7 212.048 1089.37 212.048C1089.92 212.048 1090.38 211.922 1090.74 211.67C1091.11 211.409 1091.38 211.063 1091.52 210.634H1092.9C1092.69 211.371 1092.28 211.973 1091.66 212.44C1091.05 212.897 1090.28 213.126 1089.37 213.126C1088.64 213.126 1087.99 212.963 1087.41 212.636C1086.84 212.309 1086.39 211.847 1086.06 211.25C1085.74 210.643 1085.57 209.943 1085.57 209.15C1085.57 208.357 1085.73 207.661 1086.05 207.064C1086.37 206.467 1086.81 206.009 1087.38 205.692C1087.96 205.365 1088.62 205.202 1089.37 205.202C1090.1 205.202 1090.74 205.361 1091.3 205.678C1091.86 205.995 1092.29 206.434 1092.59 206.994C1092.9 207.545 1093.05 208.17 1093.05 208.87ZM1091.73 208.604C1091.73 208.119 1091.63 207.703 1091.41 207.358C1091.2 207.003 1090.9 206.737 1090.53 206.56C1090.17 206.373 1089.76 206.28 1089.31 206.28C1088.67 206.28 1088.12 206.485 1087.66 206.896C1087.21 207.307 1086.96 207.876 1086.89 208.604H1091.73ZM1097.99 209.136C1097.99 208.352 1098.15 207.666 1098.46 207.078C1098.78 206.481 1099.22 206.019 1099.77 205.692C1100.33 205.365 1100.95 205.202 1101.63 205.202C1102.3 205.202 1102.88 205.347 1103.38 205.636C1103.87 205.925 1104.24 206.289 1104.48 206.728V205.328H1105.77V213H1104.48V211.572C1104.23 212.02 1103.85 212.393 1103.35 212.692C1102.86 212.981 1102.28 213.126 1101.61 213.126C1100.93 213.126 1100.32 212.958 1099.77 212.622C1099.22 212.286 1098.78 211.815 1098.46 211.208C1098.15 210.601 1097.99 209.911 1097.99 209.136ZM1104.48 209.15C1104.48 208.571 1104.37 208.067 1104.13 207.638C1103.9 207.209 1103.58 206.882 1103.18 206.658C1102.79 206.425 1102.36 206.308 1101.88 206.308C1101.4 206.308 1100.97 206.42 1100.58 206.644C1100.19 206.868 1099.87 207.195 1099.64 207.624C1099.41 208.053 1099.29 208.557 1099.29 209.136C1099.29 209.724 1099.41 210.237 1099.64 210.676C1099.87 211.105 1100.19 211.437 1100.58 211.67C1100.97 211.894 1101.4 212.006 1101.88 212.006C1102.36 212.006 1102.79 211.894 1103.18 211.67C1103.58 211.437 1103.9 211.105 1104.13 210.676C1104.37 210.237 1104.48 209.729 1104.48 209.15ZM1111.66 205.188C1112.6 205.188 1113.35 205.473 1113.93 206.042C1114.51 206.602 1114.8 207.414 1114.8 208.478V213H1113.54V208.66C1113.54 207.895 1113.35 207.311 1112.97 206.91C1112.58 206.499 1112.06 206.294 1111.4 206.294C1110.73 206.294 1110.19 206.504 1109.79 206.924C1109.4 207.344 1109.2 207.955 1109.2 208.758V213H1107.93V205.328H1109.2V206.42C1109.45 206.028 1109.79 205.725 1110.22 205.51C1110.66 205.295 1111.14 205.188 1111.66 205.188ZM1116.4 209.136C1116.4 208.352 1116.56 207.666 1116.88 207.078C1117.2 206.481 1117.63 206.019 1118.18 205.692C1118.74 205.365 1119.37 205.202 1120.06 205.202C1120.66 205.202 1121.21 205.342 1121.72 205.622C1122.24 205.893 1122.63 206.252 1122.9 206.7V202.64H1124.19V213H1122.9V211.558C1122.65 212.015 1122.28 212.393 1121.78 212.692C1121.29 212.981 1120.71 213.126 1120.04 213.126C1119.36 213.126 1118.74 212.958 1118.18 212.622C1117.63 212.286 1117.2 211.815 1116.88 211.208C1116.56 210.601 1116.4 209.911 1116.4 209.136ZM1122.9 209.15C1122.9 208.571 1122.78 208.067 1122.55 207.638C1122.32 207.209 1122 206.882 1121.6 206.658C1121.21 206.425 1120.77 206.308 1120.3 206.308C1119.82 206.308 1119.39 206.42 1118.99 206.644C1118.6 206.868 1118.29 207.195 1118.06 207.624C1117.82 208.053 1117.71 208.557 1117.71 209.136C1117.71 209.724 1117.82 210.237 1118.06 210.676C1118.29 211.105 1118.6 211.437 1118.99 211.67C1119.39 211.894 1119.82 212.006 1120.3 212.006C1120.77 212.006 1121.21 211.894 1121.6 211.67C1122 211.437 1122.32 211.105 1122.55 210.676C1122.78 210.237 1122.9 209.729 1122.9 209.15ZM1131.35 204.278V207.54H1134.9V208.59H1131.35V211.95H1135.32V213H1130.07V203.228H1135.32V204.278H1131.35ZM1146.48 205.188C1147.08 205.188 1147.61 205.314 1148.07 205.566C1148.54 205.809 1148.91 206.177 1149.18 206.672C1149.45 207.167 1149.59 207.769 1149.59 208.478V213H1148.33V208.66C1148.33 207.895 1148.13 207.311 1147.75 206.91C1147.38 206.499 1146.87 206.294 1146.23 206.294C1145.56 206.294 1145.04 206.509 1144.64 206.938C1144.25 207.358 1144.06 207.969 1144.06 208.772V213H1142.8V208.66C1142.8 207.895 1142.6 207.311 1142.22 206.91C1141.85 206.499 1141.34 206.294 1140.7 206.294C1140.03 206.294 1139.51 206.509 1139.11 206.938C1138.72 207.358 1138.53 207.969 1138.53 208.772V213H1137.25V205.328H1138.53V206.434C1138.78 206.033 1139.11 205.725 1139.53 205.51C1139.96 205.295 1140.43 205.188 1140.95 205.188C1141.59 205.188 1142.16 205.333 1142.66 205.622C1143.15 205.911 1143.52 206.336 1143.76 206.896C1143.98 206.355 1144.33 205.935 1144.83 205.636C1145.32 205.337 1145.87 205.188 1146.48 205.188ZM1151.2 209.136C1151.2 208.352 1151.36 207.666 1151.68 207.078C1151.99 206.481 1152.43 206.019 1152.98 205.692C1153.54 205.365 1154.16 205.202 1154.84 205.202C1155.51 205.202 1156.09 205.347 1156.59 205.636C1157.08 205.925 1157.45 206.289 1157.7 206.728V205.328H1158.98V213H1157.7V211.572C1157.44 212.02 1157.07 212.393 1156.56 212.692C1156.07 212.981 1155.49 213.126 1154.83 213.126C1154.14 213.126 1153.53 212.958 1152.98 212.622C1152.43 212.286 1151.99 211.815 1151.68 211.208C1151.36 210.601 1151.2 209.911 1151.2 209.136ZM1157.7 209.15C1157.7 208.571 1157.58 208.067 1157.35 207.638C1157.11 207.209 1156.79 206.882 1156.39 206.658C1156 206.425 1155.57 206.308 1155.09 206.308C1154.62 206.308 1154.18 206.42 1153.79 206.644C1153.4 206.868 1153.08 207.195 1152.85 207.624C1152.62 208.053 1152.5 208.557 1152.5 209.136C1152.5 209.724 1152.62 210.237 1152.85 210.676C1153.08 211.105 1153.4 211.437 1153.79 211.67C1154.18 211.894 1154.62 212.006 1155.09 212.006C1155.57 212.006 1156 211.894 1156.39 211.67C1156.79 211.437 1157.11 211.105 1157.35 210.676C1157.58 210.237 1157.7 209.729 1157.7 209.15ZM1161.79 204.082C1161.55 204.082 1161.35 203.998 1161.18 203.83C1161.01 203.662 1160.93 203.457 1160.93 203.214C1160.93 202.971 1161.01 202.766 1161.18 202.598C1161.35 202.43 1161.55 202.346 1161.79 202.346C1162.03 202.346 1162.22 202.43 1162.38 202.598C1162.55 202.766 1162.63 202.971 1162.63 203.214C1162.63 203.457 1162.55 203.662 1162.38 203.83C1162.22 203.998 1162.03 204.082 1161.79 204.082ZM1162.41 205.328V213H1161.14V205.328H1162.41ZM1165.86 202.64V213H1164.58V202.64H1165.86ZM1174.48 213.126C1173.89 213.126 1173.36 213.028 1172.89 212.832C1172.43 212.627 1172.06 212.347 1171.79 211.992C1171.52 211.628 1171.37 211.213 1171.34 210.746H1172.66C1172.69 211.129 1172.87 211.441 1173.19 211.684C1173.51 211.927 1173.94 212.048 1174.46 212.048C1174.95 212.048 1175.33 211.941 1175.61 211.726C1175.89 211.511 1176.03 211.241 1176.03 210.914C1176.03 210.578 1175.88 210.331 1175.58 210.172C1175.28 210.004 1174.82 209.841 1174.2 209.682C1173.63 209.533 1173.16 209.383 1172.8 209.234C1172.44 209.075 1172.13 208.847 1171.87 208.548C1171.62 208.24 1171.49 207.839 1171.49 207.344C1171.49 206.952 1171.61 206.593 1171.84 206.266C1172.08 205.939 1172.41 205.683 1172.84 205.496C1173.27 205.3 1173.76 205.202 1174.31 205.202C1175.16 205.202 1175.84 205.417 1176.37 205.846C1176.89 206.275 1177.17 206.863 1177.21 207.61H1175.93C1175.9 207.209 1175.74 206.887 1175.44 206.644C1175.15 206.401 1174.76 206.28 1174.27 206.28C1173.81 206.28 1173.44 206.378 1173.17 206.574C1172.9 206.77 1172.77 207.027 1172.77 207.344C1172.77 207.596 1172.85 207.806 1173.01 207.974C1173.17 208.133 1173.38 208.263 1173.62 208.366C1173.87 208.459 1174.22 208.567 1174.66 208.688C1175.21 208.837 1175.66 208.987 1176 209.136C1176.35 209.276 1176.64 209.491 1176.88 209.78C1177.14 210.069 1177.27 210.447 1177.28 210.914C1177.28 211.334 1177.16 211.712 1176.93 212.048C1176.69 212.384 1176.36 212.65 1175.93 212.846C1175.51 213.033 1175.03 213.126 1174.48 213.126ZM1185.88 205.328V213H1184.6V211.866C1184.36 212.258 1184.02 212.566 1183.58 212.79C1183.15 213.005 1182.68 213.112 1182.15 213.112C1181.56 213.112 1181.02 212.991 1180.54 212.748C1180.07 212.496 1179.69 212.123 1179.41 211.628C1179.14 211.133 1179 210.531 1179 209.822V205.328H1180.26V209.654C1180.26 210.41 1180.46 210.993 1180.84 211.404C1181.22 211.805 1181.74 212.006 1182.41 212.006C1183.09 212.006 1183.62 211.796 1184.02 211.376C1184.41 210.956 1184.6 210.345 1184.6 209.542V205.328H1185.88ZM1189.3 206.742C1189.56 206.303 1189.93 205.939 1190.42 205.65C1190.93 205.351 1191.51 205.202 1192.17 205.202C1192.85 205.202 1193.47 205.365 1194.02 205.692C1194.58 206.019 1195.02 206.481 1195.34 207.078C1195.65 207.666 1195.81 208.352 1195.81 209.136C1195.81 209.911 1195.65 210.601 1195.34 211.208C1195.02 211.815 1194.58 212.286 1194.02 212.622C1193.47 212.958 1192.85 213.126 1192.17 213.126C1191.52 213.126 1190.94 212.981 1190.44 212.692C1189.94 212.393 1189.56 212.025 1189.3 211.586V216.64H1188.03V205.328H1189.3V206.742ZM1194.51 209.136C1194.51 208.557 1194.39 208.053 1194.16 207.624C1193.93 207.195 1193.61 206.868 1193.21 206.644C1192.82 206.42 1192.38 206.308 1191.91 206.308C1191.44 206.308 1191.01 206.425 1190.61 206.658C1190.21 206.882 1189.9 207.213 1189.65 207.652C1189.42 208.081 1189.3 208.581 1189.3 209.15C1189.3 209.729 1189.42 210.237 1189.65 210.676C1189.9 211.105 1190.21 211.437 1190.61 211.67C1191.01 211.894 1191.44 212.006 1191.91 212.006C1192.38 212.006 1192.82 211.894 1193.21 211.67C1193.61 211.437 1193.93 211.105 1194.16 210.676C1194.39 210.237 1194.51 209.724 1194.51 209.136ZM1198.76 206.742C1199.02 206.303 1199.39 205.939 1199.88 205.65C1200.39 205.351 1200.97 205.202 1201.63 205.202C1202.32 205.202 1202.93 205.365 1203.48 205.692C1204.04 206.019 1204.48 206.481 1204.8 207.078C1205.12 207.666 1205.27 208.352 1205.27 209.136C1205.27 209.911 1205.12 210.601 1204.8 211.208C1204.48 211.815 1204.04 212.286 1203.48 212.622C1202.93 212.958 1202.32 213.126 1201.63 213.126C1200.98 213.126 1200.4 212.981 1199.9 212.692C1199.4 212.393 1199.03 212.025 1198.76 211.586V216.64H1197.49V205.328H1198.76V206.742ZM1203.97 209.136C1203.97 208.557 1203.86 208.053 1203.62 207.624C1203.39 207.195 1203.07 206.868 1202.67 206.644C1202.28 206.42 1201.84 206.308 1201.37 206.308C1200.9 206.308 1200.47 206.425 1200.07 206.658C1199.67 206.882 1199.36 207.213 1199.11 207.652C1198.88 208.081 1198.76 208.581 1198.76 209.15C1198.76 209.729 1198.88 210.237 1199.11 210.676C1199.36 211.105 1199.67 211.437 1200.07 211.67C1200.47 211.894 1200.9 212.006 1201.37 212.006C1201.84 212.006 1202.28 211.894 1202.67 211.67C1203.07 211.437 1203.39 211.105 1203.62 210.676C1203.86 210.237 1203.97 209.724 1203.97 209.136ZM1210.3 213.126C1209.58 213.126 1208.93 212.963 1208.34 212.636C1207.76 212.309 1207.3 211.847 1206.97 211.25C1206.64 210.643 1206.48 209.943 1206.48 209.15C1206.48 208.366 1206.64 207.675 1206.98 207.078C1207.32 206.471 1207.79 206.009 1208.38 205.692C1208.97 205.365 1209.63 205.202 1210.35 205.202C1211.08 205.202 1211.74 205.365 1212.33 205.692C1212.92 206.009 1213.38 206.467 1213.71 207.064C1214.06 207.661 1214.23 208.357 1214.23 209.15C1214.23 209.943 1214.05 210.643 1213.7 211.25C1213.35 211.847 1212.88 212.309 1212.29 212.636C1211.69 212.963 1211.03 213.126 1210.3 213.126ZM1210.3 212.006C1210.75 212.006 1211.18 211.899 1211.59 211.684C1211.99 211.469 1212.31 211.147 1212.55 210.718C1212.8 210.289 1212.93 209.766 1212.93 209.15C1212.93 208.534 1212.81 208.011 1212.57 207.582C1212.32 207.153 1212.01 206.835 1211.61 206.63C1211.22 206.415 1210.8 206.308 1210.34 206.308C1209.87 206.308 1209.44 206.415 1209.05 206.63C1208.67 206.835 1208.36 207.153 1208.13 207.582C1207.89 208.011 1207.78 208.534 1207.78 209.15C1207.78 209.775 1207.89 210.303 1208.11 210.732C1208.35 211.161 1208.65 211.483 1209.04 211.698C1209.42 211.903 1209.84 212.006 1210.3 212.006ZM1217.18 206.574C1217.4 206.135 1217.72 205.795 1218.13 205.552C1218.55 205.309 1219.06 205.188 1219.66 205.188V206.504H1219.32C1217.89 206.504 1217.18 207.279 1217.18 208.828V213H1215.91V205.328H1217.18V206.574ZM1222.68 206.378V210.9C1222.68 211.273 1222.76 211.539 1222.92 211.698C1223.08 211.847 1223.35 211.922 1223.75 211.922H1224.68V213H1223.54C1222.83 213 1222.3 212.837 1221.94 212.51C1221.59 212.183 1221.41 211.647 1221.41 210.9V206.378H1220.41V205.328H1221.41V203.396H1222.68V205.328H1224.68V206.378H1222.68Z" fill="#6C7275"/>
</svg>
